<svg xmlns="http://www.w3.org/2000/svg" height="512" viewBox="0 0 496 496" width="512"><path d="M488 208h-48c-4.426 0-8 3.586-8 8v8H240c-2.129 0-4.16.84-5.656 2.344L224 236.688l-10.344-10.344A7.964 7.964 0 0 0 208 224H64v-8c0-4.414-3.574-8-8-8H8c-4.426 0-8 3.586-8 8v192c0 4.414 3.574 8 8 8h48c4.426 0 8-3.586 8-8v-8h64.137c-.024.465-.137.902-.137 1.367C128 418.266 141.742 432 158.625 432c.52 0 1.008-.121 1.52-.152-.024.511-.145 1.007-.145 1.52C160 450.265 173.742 464 190.625 464c.52 0 1.008-.121 1.52-.152-.024.511-.145 1.007-.145 1.52C192 482.265 205.742 496 222.625 496c8.184 0 15.871-3.184 21.656-8.977l3.719-3.71 3.719 3.71c5.785 5.793 13.465 8.977 21.656 8.977C290.258 496 304 482.266 304 465.367c0-.52-.121-1.008-.152-1.52.52.032 1.007.153 1.527.153C322.258 464 336 450.266 336 433.367c0-.52-.121-1.008-.152-1.52.52.032 1.007.153 1.527.153C354.258 432 368 418.266 368 401.367c0-.465-.113-.91-.137-1.367H432v8c0 4.414 3.574 8 8 8h48c4.426 0 8-3.586 8-8V216c0-4.414-3.574-8-8-8zM48 400H16V224h32zm16-160h140.688l31.03 31.023A14.554 14.554 0 0 1 240 281.367c0 8.074-6.559 14.633-14.625 14.633a14.72 14.72 0 0 1-10.344-4.29l-33.375-33.366-11.312 11.312 6.344 6.344-71.72 71.719C99.185 353.504 96 361.19 96 369.367c0 5.328 1.488 10.266 3.887 14.633H64zm168.969 235.719A14.733 14.733 0 0 1 222.625 480c-8.066 0-14.625-6.559-14.625-14.633a14.54 14.54 0 0 1 4.281-10.344l3.719-3.71L236.688 472zM288 465.367c0 8.074-6.559 14.633-14.625 14.633a14.72 14.72 0 0 1-10.344-4.29l-42.75-42.733A14.554 14.554 0 0 1 216 422.633c0-8.074 6.559-14.633 14.625-14.633a14.72 14.72 0 0 1 10.344 4.29l42.75 42.733A14.554 14.554 0 0 1 288 465.367zm32-32c0 8.074-6.559 14.633-14.625 14.633a14.72 14.72 0 0 1-10.344-4.29l-42.75-42.733A14.554 14.554 0 0 1 248 390.633c0-8.074 6.559-14.633 14.625-14.633a14.72 14.72 0 0 1 10.344 4.29l42.75 42.733A14.554 14.554 0 0 1 320 433.367zM337.375 416a14.72 14.72 0 0 1-10.344-4.29l-42.75-42.733A14.554 14.554 0 0 1 280 358.633c0-8.074 6.559-14.633 14.625-14.633a14.72 14.72 0 0 1 10.344 4.29l42.75 42.733A14.554 14.554 0 0 1 352 401.367c0 8.074-6.559 14.633-14.625 14.633zM312 326.633c0-8.074 6.559-14.633 14.625-14.633a14.72 14.72 0 0 1 10.344 4.29l42.75 42.733A14.554 14.554 0 0 1 384 369.367c0 8.074-6.559 14.633-14.625 14.633a14.72 14.72 0 0 1-10.344-4.29l-42.75-42.733A14.554 14.554 0 0 1 312 326.633zM396.113 384c2.399-4.367 3.887-9.305 3.887-14.633 0-8.176-3.184-15.863-8.969-21.656l-42.75-42.734c-5.785-5.793-13.465-8.977-21.656-8.977C309.742 296 296 309.734 296 326.633c0 .52.121 1.008.152 1.52-.52-.032-1.007-.153-1.527-.153C277.742 328 264 341.734 264 358.633c0 .52.121 1.008.152 1.52-.52-.032-1.007-.153-1.527-.153C245.742 360 232 373.734 232 390.633c0 .52.121 1.008.152 1.52-.52-.032-1.007-.153-1.527-.153C213.742 392 200 405.734 200 422.633c0 6.12 1.793 11.969 5.113 16.941l-4.144 4.145A14.733 14.733 0 0 1 190.625 448c-8.066 0-14.625-6.559-14.625-14.633a14.54 14.54 0 0 1 4.281-10.344l17.375-17.367-11.312-11.312-17.375 17.375A14.733 14.733 0 0 1 158.625 416c-8.066 0-14.625-6.559-14.625-14.633a14.54 14.54 0 0 1 4.281-10.344l17.375-17.367-11.312-11.312-17.375 17.375A14.733 14.733 0 0 1 126.625 384c-8.066 0-14.625-6.559-14.625-14.633a14.54 14.54 0 0 1 4.281-10.344L188 287.305l15.719 15.71c5.785 5.801 13.465 8.985 21.656 8.985C242.258 312 256 298.266 256 281.367c0-8.176-3.184-15.863-8.969-21.656L235.313 248l8-8H432v144zM480 400h-32V224h32zm0 0M248 160c30.871 0 56-25.121 56-56s-25.129-56-56-56-56 25.121-56 56 25.129 56 56 56zm0-96c22.055 0 40 17.945 40 40s-17.945 40-40 40-40-17.945-40-40 17.945-40 40-40zm0 0" fill="#6aad39"/><path d="M56 128c10.414 0 19.215-6.71 22.527-16H144v8c0 4.414 3.574 8 8 8h11.344c1.77 6.098 4.258 12.07 7.465 17.879l-8.465 8.465a7.99 7.99 0 0 0 0 11.312l24 24a7.99 7.99 0 0 0 11.312 0l8.465-8.465c5.809 3.2 11.781 5.696 17.879 7.465V200c0 4.414 3.574 8 8 8h32c4.426 0 8-3.586 8-8v-11.328a87.303 87.303 0 0 0 17.984-7.375l8.36 8.36a7.99 7.99 0 0 0 11.312 0L331.312 168h38.16c3.313 9.29 12.114 16 22.528 16 13.23 0 24-10.77 24-24s-10.77-24-24-24c-10.414 0-19.215 6.71-22.527 16h-38.16l-6.016-6.016A87.303 87.303 0 0 0 332.672 128H344c4.426 0 8-3.586 8-8v-8h65.473c3.312 9.29 12.113 16 22.527 16 13.23 0 24-10.77 24-24s-10.77-24-24-24c-10.414 0-19.215 6.71-22.527 16H352v-8c0-4.414-3.574-8-8-8h-11.344c-1.77-6.098-4.258-12.07-7.465-17.879l8.465-8.465a7.99 7.99 0 0 0 0-11.312l-24-24a7.99 7.99 0 0 0-11.312 0l-8.465 8.465c-5.8-3.2-11.774-5.696-17.879-7.465V8c0-4.414-3.574-8-8-8h-32c-4.426 0-8 3.586-8 8v11.328a87.303 87.303 0 0 0-17.984 7.375l-8.36-8.36a7.99 7.99 0 0 0-11.312 0L164.688 40h-38.16c-3.313-9.29-12.114-16-22.528-16-13.23 0-24 10.77-24 24s10.77 24 24 24c10.414 0 19.215-6.71 22.527-16h38.16l6.016 6.016A87.303 87.303 0 0 0 163.328 80H152c-4.426 0-8 3.586-8 8v8H78.527C75.215 86.71 66.414 80 56 80c-13.23 0-24 10.77-24 24s10.77 24 24 24zm384-32c4.414 0 8 3.594 8 8s-3.586 8-8 8-8-3.594-8-8 3.586-8 8-8zm-48 56c4.414 0 8 3.594 8 8s-3.586 8-8 8-8-3.594-8-8 3.586-8 8-8zM104 56c-4.414 0-8-3.594-8-8s3.586-8 8-8 8 3.594 8 8-3.586 8-8 8zm56 40h9.61a7.998 7.998 0 0 0 7.84-6.406c1.741-8.64 5.124-16.883 10.03-24.496a8.004 8.004 0 0 0-1.074-9.993L179.312 48 192 35.312l7.105 7.102a7.98 7.98 0 0 0 9.993 1.066c7.605-4.906 15.847-8.28 24.496-10.03A8.01 8.01 0 0 0 240 25.61V16h16v9.61a8.004 8.004 0 0 0 6.406 7.84c8.38 1.695 16.586 5.109 24.395 10.152a8.005 8.005 0 0 0 9.992-1.075L304 35.312 316.688 48l-7.208 7.207a7.994 7.994 0 0 0-1.074 9.984c5.043 7.832 8.457 16.04 10.145 24.395A7.997 7.997 0 0 0 326.39 96H336v16h-9.61a7.998 7.998 0 0 0-7.84 6.406c-1.741 8.64-5.124 16.883-10.03 24.496a8.004 8.004 0 0 0 1.074 9.993l7.094 7.105L304 172.688l-7.105-7.102a8.004 8.004 0 0 0-9.993-1.066c-7.605 4.906-15.847 8.28-24.496 10.03a8.01 8.01 0 0 0-6.406 7.84V192h-16v-9.61a8.004 8.004 0 0 0-6.406-7.84c-8.38-1.695-16.586-5.109-24.395-10.152a8.016 8.016 0 0 0-9.992 1.075L192 172.687 179.312 160l7.208-7.207a7.994 7.994 0 0 0 1.074-9.984c-5.043-7.832-8.457-16.04-10.145-24.395a7.997 7.997 0 0 0-7.84-6.414H160zM56 96c4.414 0 8 3.594 8 8s-3.586 8-8 8-8-3.594-8-8 3.586-8 8-8zm0 0" fill="#6aad39"/></svg>