<svg xmlns="http://www.w3.org/2000/svg" viewBox="0 0 470 470" width="512" height="512"><g fill="#60a132"><path d="M126.184 358.951c19.299 0 35-15.701 35-35s-15.701-35-35-35-35 15.701-35 35 15.701 35 35 35zm0-55c11.028 0 20 8.972 20 20s-8.972 20-20 20-20-8.972-20-20 8.971-20 20-20zm217.632-15c-19.299 0-35 15.701-35 35s15.701 35 35 35 35-15.701 35-35-15.701-35-35-35zm0 55c-11.028 0-20-8.972-20-20s8.972-20 20-20 20 8.972 20 20-8.971 20-20 20zM137.5 116.049h23.779c4.143 0 7.5-3.358 7.5-7.5s-3.357-7.5-7.5-7.5H137.5c-10.423 0-27.031 7.176-34.177 14.767l-60.088 63.845a7.5 7.5 0 0 0 5.462 12.64h290.271a7.499 7.499 0 0 0 6.801-10.662l-30.854-66.365c-3.315-7.046-14.628-14.225-22.415-14.225H191.279a7.5 7.5 0 0 0-7.5 7.5l-.001 68.752H66.056l48.19-51.204c4.243-4.508 17.066-10.048 23.254-10.048zm61.279 0h93.7c2.203.103 7.842 3.681 8.849 5.581l25.883 55.671H198.778l.001-61.252z"/><path d="M470 257.692c0-26.631-20.555-55.149-45.819-63.57l-35.078-11.693c-5.854-1.951-13.576-8.812-16.203-14.394L342.06 102.5c-8.299-17.636-30.068-31.451-49.56-31.451h-155c-18.639 0-43.247 10.632-56.022 24.206L12.32 168.737C5.411 176.077 0 189.721 0 199.801v94.15c0 20.678 16.822 37.5 37.5 37.5h14.06c3.775 37.846 35.8 67.5 74.624 67.5s70.849-29.654 74.624-67.5h45.509c4.143 0 7.5-3.358 7.5-7.5s-3.357-7.5-7.5-7.5h-45.509c-3.775-37.846-35.8-67.5-74.624-67.5s-70.849 29.654-74.624 67.5H37.5c-12.406 0-22.5-10.093-22.5-22.5v-94.15c0-6.294 3.929-16.2 8.242-20.783l69.159-73.483c9.941-10.563 30.594-19.486 45.099-19.486h155c13.682 0 30.162 10.458 35.987 22.838l30.84 65.535c4.421 9.395 15.182 18.955 25.031 22.238l28.498 9.499a50.621 50.621 0 0 0-.748 8.642c0 25.238 18.65 46.198 42.892 49.831v29.32c0 12.407-8.357 22.5-18.631 22.5H418.44c-3.775-37.846-35.8-67.5-74.624-67.5-41.355 0-75 33.645-75 75s33.645 75 75 75c38.824 0 70.849-29.654 74.624-67.5h17.929c18.544 0 33.631-16.822 33.631-37.5v-36.26zm-343.816 6.259c33.084 0 60 26.916 60 60s-26.916 60-60 60-60-26.916-60-60 26.916-60 60-60zm217.632 120c-33.084 0-60-26.916-60-60s26.916-60 60-60 60 26.916 60 60-26.916 60-60 60zm83.292-169.15c0-.969.04-1.934.117-2.893 13.16 7.627 23.787 22.37 26.864 37.266-15.466-3.785-26.981-17.756-26.981-34.373z"/></g></svg>