<svg xmlns="http://www.w3.org/2000/svg" viewBox="0 0 51.413 51.413" width="512" height="512"><g fill="#588c32"><path d="M25.989 12.274c8.663.085 14.09-.454 14.823 9.148h10.564c0-14.875-12.973-16.88-25.662-16.88-12.69 0-25.662 2.005-25.662 16.88h10.482c.811-9.785 6.864-9.232 15.455-9.148zM5.291 26.204c2.573 0 4.714.154 5.19-2.377.064-.344.101-.734.101-1.185H0c0 3.765 2.369 3.562 5.291 3.562zM40.88 22.642h-.099c0 .454.039.845.112 1.185.502 2.334 2.64 2.189 5.204 2.189 2.936 0 5.316.193 5.316-3.374H40.88z"/><path d="M35.719 20.078v-1.496c0-.669-.771-.711-1.723-.711h-1.555c-.951 0-1.722.042-1.722.711V20.871h-11V18.582c0-.669-.771-.711-1.722-.711h-1.556c-.951 0-1.722.042-1.722.711v2.802C12.213 23.988 4.013 35.073 3.715 36.415l.004 8.955c0 .827.673 1.5 1.5 1.5h40c.827 0 1.5-.673 1.5-1.5v-9c-.295-1.303-8.493-12.383-11-14.987v-1.305zM19.177 37.62a1.458 1.458 0 1 1 0-2.915 1.458 1.458 0 0 1 0 2.915zm0-5a1.458 1.458 0 1 1 0-2.915 1.458 1.458 0 0 1 0 2.915zm0-4.999a1.458 1.458 0 1 1 0-2.915 1.458 1.458 0 0 1 0 2.915zm6 9.999a1.458 1.458 0 1 1 0-2.915 1.458 1.458 0 0 1 0 2.915zm0-5a1.458 1.458 0 1 1 0-2.915 1.458 1.458 0 0 1 0 2.915zm0-4.999a1.458 1.458 0 1 1 0-2.915 1.458 1.458 0 0 1 0 2.915zm6 9.999a1.457 1.457 0 1 1 0-2.916 1.457 1.457 0 1 1 0 2.916zm0-5a1.457 1.457 0 1 1 0-2.916 1.457 1.457 0 1 1 0 2.916zm0-4.999a1.457 1.457 0 1 1 0-2.916 1.458 1.458 0 1 1 0 2.916z"/></g></svg>