<svg xmlns="http://www.w3.org/2000/svg" viewBox="0 0 512 512" width="512" height="512"><path d="M402 166c-5.52 0-10 4.48-10 10s4.48 10 10 10 10-4.48 10-10-4.48-10-10-10z" fill="#FFF"/><path d="M482 126H372.18l-31.706-63.413C335.357 52.356 325.075 46 313.64 46H198.36c-11.437 0-21.719 6.356-26.834 16.588L139.82 126H120v-10c0-16.542-13.458-30-30-30H70c-16.542 0-30 13.458-30 30v10H30c-16.542 0-30 13.458-30 30v280c0 16.542 13.458 30 30 30h452c16.542 0 30-13.458 30-30V156c0-16.542-13.458-30-30-30zM189.415 71.532A9.948 9.948 0 0 1 198.36 66h115.28a9.95 9.95 0 0 1 8.946 5.532L349.82 126H162.18l27.235-54.468zM60 116c0-5.514 4.486-10 10-10h20c5.514 0 10 4.486 10 10v10H60v-10zM20 225.9h126.451C133.161 246.661 126 270.992 126 296c0 25.01 7.162 49.243 20.45 70H20V225.9zM256 186c60.133 0 110 48.719 110 110 0 61.212-49.797 110-110 110-60.257 0-110-48.842-110-110 0-61.205 49.79-110 110-110zm236 250c0 5.514-4.486 10-10 10H30c-5.514 0-10-4.486-10-10v-50h142.226c24.435 25.472 58.349 40 93.774 40 35.431 0 69.348-14.532 93.775-40H492v50zm0-70H365.549C378.839 345.239 386 321.009 386 296s-7.161-49.239-20.451-70H492v140zm0-160H349.774c-24.434-25.472-58.348-40-93.774-40-35.43 0-69.347 14.532-93.775 40H20v-50c0-5.514 4.486-10 10-10h452c5.514 0 10 4.486 10 10v50z" fill="#FFF"/><path d="M286 86h-60c-5.523 0-10 4.477-10 10s4.477 10 10 10h60c5.522 0 10-4.477 10-10s-4.478-10-10-10zM256 206c-49.626 0-90 40.374-90 90s40.374 90 90 90 90-40.374 90-90-40.374-90-90-90zm0 160c-38.598 0-70-31.402-70-70s31.402-70 70-70 70 31.402 70 70-31.402 70-70 70z" fill="#FFF"/><path d="M256 246c-27.57 0-50 22.43-50 50 0 5.523 4.477 10 10 10s10-4.477 10-10c0-16.542 13.458-30 30-30 5.522 0 10-4.477 10-10s-4.478-10-10-10zM462 166h-20c-5.522 0-10 4.477-10 10s4.478 10 10 10h20c5.522 0 10-4.477 10-10s-4.478-10-10-10z" fill="#FFF"/></svg>