<svg xmlns="http://www.w3.org/2000/svg" viewBox="0 0 59.986 59.986" width="512" height="512"><path d="M59.972 20.164a1.005 1.005 0 0 0-.054-.531c-.009-.024-.011-.049-.022-.072-.008-.017-.022-.03-.031-.047-.009-.017-.013-.035-.023-.052l-10-16a1.026 1.026 0 0 0-.161-.197l-.003-.002a.983.983 0 0 0-.297-.185c-.014-.006-.023-.018-.038-.024-.011-.004-.023-.002-.034-.005a.98.98 0 0 0-.314-.057h-38a.977.977 0 0 0-.31.056c-.011.003-.022.001-.032.005-.015.005-.024.017-.038.023a.997.997 0 0 0-.287.175c-.005.005-.012.008-.017.012a1.006 1.006 0 0 0-.163.198l-10 16c-.01.016-.014.035-.023.052-.009.017-.023.03-.031.047-.011.023-.013.048-.023.072a.988.988 0 0 0 .025.789c.009.018.012.038.022.056.016.029.04.051.058.078.014.021.022.044.039.064l28.989 35.986a.043.043 0 0 0 .006.007l.005.007c.003.004.008.005.011.009a.982.982 0 0 0 .384.277.987.987 0 0 0 .383.087c.114 0 .229-.02.343-.061.017-.006.028-.02.045-.027.051-.021.091-.055.137-.084a.968.968 0 0 0 .206-.163c.014-.015.035-.022.048-.038l29-36c.016-.02.024-.044.039-.064.019-.027.042-.049.058-.078.01-.018.013-.038.022-.056a.945.945 0 0 0 .045-.115c.014-.047.028-.093.036-.142zM32.095 4.993h15.459l-4.86 13.045L32.095 4.993zm8.797 14H19.095L29.993 5.58l10.899 13.413zm-23.67-.868L12.423 4.993h15.469l-10.67 13.132zm24.371 2.868L29.818 52.599 18.269 20.993h23.324zm7.628-14.747l7.967 12.748H44.472l4.749-12.748zm-38.465.013l4.653 12.734H2.798l7.958-12.734zm5.384 14.734l10.839 29.664L3.083 20.993H16.14zm16.25 30.43l11.337-30.43h13.176L32.39 51.423z" fill="#FFF"/></svg>