<svg xmlns="http://www.w3.org/2000/svg" width="512" height="512" viewBox="0 0 512 512"><path d="M448 64H64C28.656 64 0 92.656 0 128v256c0 35.344 28.656 64 64 64h384c35.344 0 64-28.656 64-64V128c0-35.344-28.656-64-64-64zM342.656 234.781l135.469-116.094c.938 3 1.875 6 1.875 9.313v256c0 2.219-.844 4.188-1.281 6.281l-136.063-155.5zM448 96c2.125 0 4 .813 6 1.219L256 266.938 58 97.219C60 96.813 61.875 96 64 96h384zM33.266 390.25C32.828 388.156 32 386.219 32 384V128c0-3.313.953-6.313 1.891-9.313L169.313 234.75 33.266 390.25zM64 416c-3.234 0-6.172-.938-9.125-1.844l138.75-158.563 51.969 44.531C248.578 302.719 252.297 304 256 304s7.422-1.281 10.406-3.875l51.969-44.531 138.75 158.563c-2.937.905-5.875 1.843-9.125 1.843H64z" fill="#FFF"/></svg>