<svg xmlns="http://www.w3.org/2000/svg" height="512" viewBox="0 -48 480 480" width="512"><path d="M472 112h-32c-2.121 0-4.156.84-5.656 2.344A7.985 7.985 0 0 0 432 120v8h-16V72c-.027-26.496-21.504-47.973-48-48h-16V0H96C69.492 0 48 21.492 48 48s21.492 48 48 48h128v32H80c-17.664.02-31.98 14.336-32 32v8H8c-2.121 0-4.156.84-5.656 2.344A7.985 7.985 0 0 0 0 176v160c0 2.121.84 4.156 2.344 5.656A7.985 7.985 0 0 0 8 344h40v8c.02 17.664 14.336 31.98 32 32h328c2.121 0 4.156-.84 5.656-2.344A7.985 7.985 0 0 0 416 376V224h16v8c0 2.121.84 4.156 2.344 5.656A7.985 7.985 0 0 0 440 240h32c2.121 0 4.156-.84 5.656-2.344A7.985 7.985 0 0 0 480 232V120c0-2.121-.84-4.156-2.344-5.656A7.985 7.985 0 0 0 472 112zM48 328H16V184h32zM304 16h32v64h-32zm0 80h48V72h16v56h-64zM96 80c-17.672 0-32-14.328-32-32s14.328-32 32-32h96v16h16V16h80v64zm192 16v32h-48V96zm112 272H80c-8.832-.012-15.988-7.168-16-16V160c.012-8.832 7.168-15.988 16-16h320zm0-240h-16V72c-.012-8.832-7.168-15.988-16-16h-16V40h16c17.664.02 31.98 14.336 32 32zm32 80h-16v-64h16zm32 16h-16v-96h16zm0 0" fill="#FFF"/><path d="M176 256h32v16h-32zm0 0M224 256h16v16h-16zm0 0M256 256h16v16h-16zm0 0M288 256h48v16h-48zm0 0M256 32h16v16h-16zm0 0M240 48h16v16h-16zm0 0M192 48h16v16h-16zm0 0M160 32h16v16h-16zm0 0M96 48h16v16H96zm0 0" fill="#FFF"/><path d="M344 176H120c-2.121 0-4.156.84-5.656 2.344A7.985 7.985 0 0 0 112 184v24H88c-2.121 0-4.156.84-5.656 2.344A7.985 7.985 0 0 0 80 216v80c0 2.121.84 4.156 2.344 5.656A7.985 7.985 0 0 0 88 304h24v24c0 2.121.84 4.156 2.344 5.656A7.985 7.985 0 0 0 120 336h224c13.25-.016 23.984-10.75 24-24V200c-.016-13.25-10.75-23.984-24-24zM96 288v-64h48v64zm256 24a8.005 8.005 0 0 1-8 8H128v-16h24c2.121 0 4.156-.84 5.656-2.344A7.985 7.985 0 0 0 160 296v-80c0-2.121-.84-4.156-2.344-5.656A7.985 7.985 0 0 0 152 208h-24v-16h216a8.005 8.005 0 0 1 8 8zm0 0" fill="#FFF"/></svg>