<?xml version="1.0"?>
<svg xmlns="http://www.w3.org/2000/svg" height="512px" viewBox="0 0 512 512.03046" width="512px" class=""><g><path d="m42.683594 512.03125h256c23.785156-.269531 42.871094-19.734375 42.667968-43.519531v-89.089844c15.011719 13.527344 36.582032 16.941406 55.039063 8.710937 18.453125-8.230468 30.328125-26.5625 30.292969-46.769531v-10.90625c5.261718-3.023437 8.515625-8.625 8.535156-14.691406v-54.28125c48.742188-24.574219 78.703125-75.285156 76.710938-129.835937-2.878907-70.566407-58.839844-127.429688-129.355469-131.4375-40.40625-2.246094-79.714844 13.613281-107.253907 43.265624-27.539062 29.652344-40.453124 70.023438-35.234374 110.152344h-197.402344c-23.785156.269532-42.871094 19.734375-42.667969 43.523438v271.359375c-.203125 23.785156 18.882813 43.25 42.667969 43.519531zm281.601562-43.519531c.210938 14.363281-11.238281 26.195312-25.601562 26.453125h-256c-14.363282-.257813-25.8125-12.089844-25.601563-26.453125v-229.546875h266.34375c9.59375 9.070312 20.488281 16.65625 32.324219 22.511718v54.289063c.019531 6.066406 3.269531 11.667969 8.535156 14.691406zm85.332032-127.148438c0 18.851563-15.28125 34.132813-34.132813 34.132813s-34.132813-15.28125-34.132813-34.132813v-8.53125h68.265626zm-116.421876-291.386719c22.128907-21.183593 51.605469-32.96875 82.238282-32.878906 2.082031 0 4.179687.050782 6.269531.160156 61.691406 3.503907 110.652344 53.25 113.171875 114.988282 1.898438 49.609375-26.398438 95.441406-71.605469 115.96875-3.109375 1.355468-5.117187 4.425781-5.121093 7.816406v25.597656h-25.597657c-4.714843 0-8.535156 3.820313-8.535156 8.535156 0 4.710938 3.820313 8.53125 8.535156 8.53125h25.597657v17.070313h-85.332032v-17.070313h25.601563c4.710937 0 8.53125-3.820312 8.53125-8.53125 0-4.714843-3.820313-8.535156-8.53125-8.535156h-25.601563v-25.597656c0-3.390625-2.011718-6.460938-5.121094-7.816406-43.65625-20.011719-71.65625-63.625-71.679687-111.652344-.121094-32.761719 13.339844-64.109375 37.179687-86.585938zm-250.511718 120.71875h200.652344c4.730468 18.554688 13.144531 35.96875 24.746093 51.203126h-251v-24.746094c-.210937-14.367188 11.238281-26.199219 25.601563-26.457032zm0 0" data-original="#000000" class="active-path" data-old_color="#8c1f95" fill="#8c1f95"/><path d="m59.75 196.296875c0 4.714844-3.820312 8.535156-8.53125 8.535156-4.714844 0-8.535156-3.820312-8.535156-8.535156 0-4.710937 3.820312-8.53125 8.535156-8.53125 4.710938 0 8.53125 3.820313 8.53125 8.53125zm0 0" data-original="#000000" class="active-path" data-old_color="#8c1f95" fill="#8c1f95"/><path d="m93.882812 196.296875c0 4.714844-3.820312 8.535156-8.53125 8.535156-4.714843 0-8.535156-3.820312-8.535156-8.535156 0-4.710937 3.820313-8.53125 8.535156-8.53125 4.710938 0 8.53125 3.820313 8.53125 8.53125zm0 0" data-original="#000000" class="active-path" data-old_color="#8c1f95" fill="#8c1f95"/><path d="m128.015625 196.296875c0 4.714844-3.820313 8.535156-8.53125 8.535156-4.714844 0-8.535156-3.820312-8.535156-8.535156 0-4.710937 3.820312-8.53125 8.535156-8.53125 4.710937 0 8.53125 3.820313 8.53125 8.53125zm0 0" data-original="#000000" class="active-path" data-old_color="#8c1f95" fill="#8c1f95"/><path d="m76.816406 460.832031h-25.597656c-4.714844 0-8.535156 3.820313-8.535156 8.53125 0 4.714844 3.820312 8.535157 8.535156 8.535157h25.597656c4.714844 0 8.535156-3.820313 8.535156-8.535157 0-4.710937-3.820312-8.53125-8.535156-8.53125zm0 0" data-original="#000000" class="active-path" data-old_color="#8c1f95" fill="#8c1f95"/><path d="m290.148438 460.832031h-179.199219c-4.710938 0-8.53125 3.820313-8.53125 8.53125 0 4.714844 3.820312 8.535157 8.53125 8.535157h179.199219c4.714843 0 8.535156-3.820313 8.535156-8.535157 0-4.710937-3.820313-8.53125-8.535156-8.53125zm0 0" data-original="#000000" class="active-path" data-old_color="#8c1f95" fill="#8c1f95"/><path d="m51.21875 409.628906h93.863281c4.714844 0 8.535157-3.820312 8.535157-8.53125 0-4.714844-3.820313-8.535156-8.535157-8.535156h-93.863281c-4.714844 0-8.535156 3.820312-8.535156 8.535156 0 4.710938 3.820312 8.53125 8.535156 8.53125zm0 0" data-original="#000000" class="active-path" data-old_color="#8c1f95" fill="#8c1f95"/><path d="m290.148438 392.5625h-110.929688c-4.714844 0-8.535156 3.820312-8.535156 8.535156 0 4.710938 3.820312 8.53125 8.535156 8.53125h110.929688c4.714843 0 8.535156-3.820312 8.535156-8.53125 0-4.714844-3.820313-8.535156-8.535156-8.535156zm0 0" data-original="#000000" class="active-path" data-old_color="#8c1f95" fill="#8c1f95"/><path d="m51.21875 443.765625h59.730469c4.714843 0 8.535156-3.824219 8.535156-8.535156 0-4.710938-3.820313-8.535157-8.535156-8.535157h-59.730469c-4.714844 0-8.535156 3.824219-8.535156 8.535157 0 4.710937 3.820312 8.535156 8.535156 8.535156zm0 0" data-original="#000000" class="active-path" data-old_color="#8c1f95" fill="#8c1f95"/><path d="m290.148438 426.695312h-145.066407c-4.710937 0-8.53125 3.824219-8.53125 8.535157 0 4.710937 3.820313 8.535156 8.53125 8.535156h145.066407c4.714843 0 8.535156-3.824219 8.535156-8.535156 0-4.710938-3.820313-8.535157-8.535156-8.535157zm0 0" data-original="#000000" class="active-path" data-old_color="#8c1f95" fill="#8c1f95"/><path d="m281.617188 256.03125h-221.867188c-9.425781 0-17.066406 7.640625-17.066406 17.066406v85.332032c0 9.425781 7.640625 17.066406 17.066406 17.066406h221.867188c9.425781 0 17.066406-7.640625 17.066406-17.066406v-85.332032c0-9.425781-7.640625-17.066406-17.066406-17.066406zm-77.535157 102.398438-15.964843-15.972657 12.433593-11.597656 29.550781 27.570313zm-34.585937-10.453126.070312.121094c.050782.050782.117188.066406.160156.117188l10.242188 10.242187h-78.242188l39.089844-39.152343zm85.667968 10.453126-48.75-45.492188c-3.277343-3.054688-8.363281-3.054688-11.640624 0l-18.695313 17.445312-29.175781-29.183593c-1.601563-1.605469-3.777344-2.507813-6.042969-2.507813s-4.441406.902344-6.042969 2.507813l-57.222656 57.230469h-17.84375v-85.332032h221.867188v85.332032zm0 0" data-original="#000000" class="active-path" data-old_color="#8c1f95" fill="#8c1f95"/><path d="m344.464844 57.066406c4.371094-1.730468 6.515625-6.671875 4.800781-11.046875s-6.648437-6.539062-11.03125-4.839843c-39.144531 15.519531-64.933594 53.273437-65.152344 95.382812 0 4.714844 3.820313 8.535156 8.535157 8.535156 4.710937 0 8.53125-3.820312 8.53125-8.535156.1875-35.097656 21.6875-66.5625 54.316406-79.496094zm0 0" data-original="#000000" class="active-path" data-old_color="#8c1f95" fill="#8c1f95"/><path d="m409.617188 232.539062c1.066406.003907 2.125-.195312 3.113281-.589843 39.148437-15.519531 64.933593-53.273438 65.152343-95.386719 0-4.710938-3.820312-8.53125-8.53125-8.53125-4.714843 0-8.535156 3.820312-8.535156 8.53125-.1875 35.101562-21.683594 66.5625-54.3125 79.496094-3.820312 1.5-6.035156 5.5-5.273437 9.53125s4.285156 6.949218 8.386719 6.949218zm0 0" data-original="#000000" class="active-path" data-old_color="#8c1f95" fill="#8c1f95"/><path d="m367.632812 45.941406c.167969.523438.429688 1.015625.769532 1.449219.292968.488281.632812.945313 1.023437 1.363281 1.625 1.578125 3.792969 2.464844 6.058594 2.476563.570313-.015625 1.140625-.070313 1.707031-.171875.53125-.09375 1.050782-.265625 1.535156-.511719.542969-.1875 1.058594-.445313 1.535157-.765625l1.28125-1.027344c.339843-.425781.683593-.851562 1.023437-1.363281.335938-.4375.59375-.929687.769532-1.449219.246093-.484375.417968-1.003906.5-1.539062.109374-.5625.167968-1.132813.179687-1.707032-.011719-1.113281-.246094-2.214843-.679687-3.242187-.414063-1.042969-1.023438-2-1.792969-2.816406-.40625-.363281-.835938-.707031-1.28125-1.023438-.476563-.320312-.992188-.578125-1.535157-.765625-.484374-.246094-1.003906-.417968-1.535156-.511718-2.8125-.574219-5.722656.289062-7.765625 2.300781-.753906.832031-1.359375 1.785156-1.792969 2.816406-.476562 1.015625-.710937 2.125-.683593 3.242187.015625.574219.074219 1.144532.171875 1.707032.09375.535156.265625 1.054687.511718 1.539062zm0 0" data-original="#000000" class="active-path" data-old_color="#8c1f95" fill="#8c1f95"/></g> </svg>
