<?xml version="1.0" encoding="utf-8"?>
<!-- Generator: Adobe Illustrator 22.0.1, SVG Export Plug-In . SVG Version: 6.00 Build 0)  -->
<svg version="1.1" id="Слой_1" xmlns="http://www.w3.org/2000/svg" xmlns:xlink="http://www.w3.org/1999/xlink" x="0px" y="0px"
	 viewBox="0 0 1920 1080" style="enable-background:new 0 0 1920 1080;" xml:space="preserve">
<style type="text/css">
	.st0{fill:#EFF9FB;}
	.st1{fill:#C8CCD1;}
	.st2{opacity:5.000000e-02;}
	.st3{fill:#01BF2B;}
</style>
<rect x="-0.3" y="0" class="st0" width="1920" height="1080"/>
<rect x="224.7" y="0" class="st1" width="2" height="1080"/>
<rect x="1694" y="0" class="st1" width="2" height="1080"/>
<rect x="714" y="0" class="st1" width="494" height="1080"/>
<rect x="715.7" y="0" class="st0" width="490" height="1080"/>
<g class="st2">
	<path class="st3" d="M487.9,503.8c6.1,6.1,9.2,15.6,9.2,28.4v51.5c0,2.6-0.7,4.5-2.1,5.9c-1.4,1.4-3.4,2.1-5.9,2.1
		c-2.6,0-4.5-0.7-5.9-2.1c-1.4-1.4-2.1-3.4-2.1-5.9v-4.4c-6.8,8.3-16.7,12.5-29.9,12.5h-10.7c-10.7,0-18.7-2.6-23.9-7.9
		c-5.2-5.2-7.9-13.2-7.9-23.9c0-10.7,2.6-18.7,7.8-23.9c5.2-5.2,13.2-7.9,24-7.9h40.4c-0.4-6.6-2.1-11.2-5.2-13.7s-8.4-3.7-16.1-3.7
		h-11.1c-6.4,0-11.1,0.4-14.3,1.3c-3.1,0.9-5.3,2.4-6.6,4.6c-1.1,2.7-2.4,4.5-3.6,5.6c-1.3,1-3.1,1.5-5.4,1.5s-4.2-0.6-5.7-1.7
		c-1.5-1.1-2.2-2.7-2.2-4.6c0-0.8,0.1-1.4,0.2-1.9c1.9-7.2,5.9-12.4,12-15.8c6.1-3.4,14.6-5.1,25.6-5.1h11.1
		C472.3,494.6,481.8,497.7,487.9,503.8z M480.4,561.2c0.1-0.4,0.3-0.9,0.6-1.4v-15.5h-40.6c-4.3,0-7.6,0.4-9.8,1.3
		c-2.2,0.9-3.7,2.4-4.6,4.6c-0.9,2.2-1.3,5.4-1.3,9.8c0,4.3,0.4,7.6,1.3,9.8c0.9,2.2,2.4,3.7,4.6,4.6c2.2,0.9,5.4,1.3,9.8,1.3h10.7
		c16.2,0,25.9-4.4,28.9-13.2C480.2,562.1,480.3,561.6,480.4,561.2z"/>
	<path class="st3" d="M619.1,459c1.4,1.4,2.1,3.4,2.1,5.9v118.8c0,2.6-0.7,4.5-2.1,5.9c-1.4,1.4-3.4,2.1-5.9,2.1
		c-2.6,0-4.5-0.7-5.9-2.1c-1.4-1.4-2.1-3.4-2.1-5.9v-1.3c-3.2,3.2-7.2,5.6-12,7.1c-4.8,1.5-10.8,2.3-17.9,2.3H568
		c-12.8,0-22.2-3.1-28.4-9.2s-9.2-15.6-9.2-28.4v-22c0-12.8,3.1-22.2,9.2-28.4s15.6-9.2,28.4-9.2h37.2v-29.7c0-2.6,0.7-4.5,2.1-5.9
		c1.4-1.4,3.4-2.1,5.9-2.1C615.7,456.9,617.7,457.6,619.1,459z M596.8,572.3c5.6-2.2,8.3-5.5,8.3-9.9v-51.7H568
		c-5.6,0-10,0.6-13,1.9c-3.1,1.3-5.2,3.4-6.5,6.5c-1.3,3.1-1.9,7.4-1.9,13v22c0,5.6,0.6,10,1.9,13c1.3,3.1,3.4,5.2,6.5,6.5
		c3.1,1.3,7.4,1.9,13,1.9h7.3C584.1,575.7,591.2,574.5,596.8,572.3z"/>
	<path class="st3" d="M733.3,502.1c0,1.1-0.3,2.6-1,4.2l-35.2,79.5c-1.7,4-4.7,5.9-9.2,5.9c-4,0-6.8-2.1-8.6-6.3l-32.6-79.3
		c-0.6-1.7-1-3-1-4c0-3.1,1.7-5.2,5.2-6.5c1.5-0.6,2.8-1,3.8-1c2.9,0,5.2,1.7,6.7,5.2l26.8,65.5l29.5-65.9c1.7-3.2,4-4.8,6.9-4.8
		c1,0,2.3,0.3,3.8,1C731.7,497.1,733.3,499.3,733.3,502.1z"/>
	<path class="st3" d="M833.5,503.8c6.1,6.1,9.2,15.6,9.2,28.4v51.5c0,2.6-0.7,4.5-2.1,5.9c-1.4,1.4-3.4,2.1-5.9,2.1
		c-2.6,0-4.5-0.7-5.9-2.1c-1.4-1.4-2.1-3.4-2.1-5.9v-4.4c-6.8,8.3-16.7,12.5-29.9,12.5H786c-10.7,0-18.7-2.6-23.9-7.9
		c-5.2-5.2-7.9-13.2-7.9-23.9c0-10.7,2.6-18.7,7.8-23.9c5.2-5.2,13.2-7.9,24-7.9h40.4c-0.4-6.6-2.1-11.2-5.2-13.7s-8.4-3.7-16.1-3.7
		H794c-6.4,0-11.1,0.4-14.3,1.3c-3.1,0.9-5.3,2.4-6.6,4.6c-1.1,2.7-2.4,4.5-3.6,5.6c-1.3,1-3.1,1.5-5.4,1.5s-4.2-0.6-5.7-1.7
		c-1.5-1.1-2.2-2.7-2.2-4.6c0-0.8,0.1-1.4,0.2-1.9c1.9-7.2,5.9-12.4,12-15.8c6.1-3.4,14.6-5.1,25.6-5.1h11.1
		C817.9,494.6,827.3,497.7,833.5,503.8z M826,561.2c0.1-0.4,0.3-0.9,0.6-1.4v-15.5H786c-4.3,0-7.6,0.4-9.8,1.3
		c-2.2,0.9-3.7,2.4-4.6,4.6c-0.9,2.2-1.3,5.4-1.3,9.8c0,4.3,0.4,7.6,1.3,9.8c0.9,2.2,2.4,3.7,4.6,4.6c2.2,0.9,5.4,1.3,9.8,1.3h10.7
		c16.2,0,25.9-4.4,28.9-13.2C825.7,562.1,825.9,561.6,826,561.2z"/>
	<path class="st3" d="M960.3,503.8c6.1,6.1,9.2,15.6,9.2,28.4v51.5c0,2.6-0.7,4.5-2.1,5.9c-1.4,1.4-3.4,2.1-5.9,2.1
		c-2.6,0-4.5-0.7-5.9-2.1c-1.4-1.4-2.1-3.4-2.1-5.9v-51.5c0-5.6-0.6-10-1.9-13c-1.3-3.1-3.4-5.2-6.5-6.5c-3.1-1.3-7.4-1.9-13-1.9
		h-5.4c-8,0-14.8,0.9-20.4,2.8c-5.6,1.9-8.7,4.6-9.5,8.1v62.1c0,2.6-0.7,4.5-2.1,5.9c-1.4,1.4-3.4,2.1-5.9,2.1
		c-2.6,0-4.5-0.7-5.9-2.1c-1.4-1.4-2.1-3.4-2.1-5.9v-81c0-5.4,2.7-8,8-8c5.4,0,8,2.7,8,8v3.3c6.8-7.5,16.7-11.3,29.9-11.3h5.4
		C944.7,494.6,954.1,497.7,960.3,503.8z"/>
	<path class="st3" d="M1056.4,583.7c0,2.6-0.7,4.5-2.1,5.9c-1.4,1.4-3.4,2.1-5.9,2.1c-12.6,0-22-3-28-9c-6-6-9-15.3-9-27.8v-44.3
		h-9.4c-2.6,0-4.5-0.7-5.9-2.1c-1.4-1.4-2.1-3.4-2.1-5.9c0-5.4,2.7-8,8-8h9.4v-14c0-2.6,0.7-4.5,2.1-5.9c1.4-1.4,3.4-2.1,5.9-2.1
		c2.6,0,4.5,0.7,5.9,2.1c1.4,1.4,2.1,3.4,2.1,5.9v14h22c5.4,0,8,2.7,8,8c0,2.6-0.7,4.5-2.1,5.9c-1.4,1.4-3.4,2.1-5.9,2.1h-22V555
		c0,5.5,0.6,9.7,1.9,12.6c1.3,2.9,3.4,5,6.3,6.2c2.9,1.2,7.2,1.8,12.6,1.8C1053.8,575.7,1056.4,578.3,1056.4,583.7z"/>
	<path class="st3" d="M1157.4,503.8c6.1,6.1,9.2,15.6,9.2,28.4v51.5c0,2.6-0.7,4.5-2.1,5.9c-1.4,1.4-3.4,2.1-5.9,2.1
		s-4.5-0.7-5.9-2.1c-1.4-1.4-2.1-3.4-2.1-5.9v-4.4c-6.8,8.3-16.7,12.5-29.9,12.5h-10.7c-10.7,0-18.7-2.6-23.9-7.9
		c-5.2-5.2-7.9-13.2-7.9-23.9c0-10.7,2.6-18.7,7.8-23.9c5.2-5.2,13.2-7.9,24-7.9h40.4c-0.4-6.6-2.1-11.2-5.2-13.7s-8.4-3.7-16.1-3.7
		h-11.1c-6.4,0-11.1,0.4-14.3,1.3c-3.1,0.9-5.3,2.4-6.6,4.6c-1.1,2.7-2.4,4.5-3.6,5.6c-1.3,1-3.1,1.5-5.4,1.5s-4.2-0.6-5.7-1.7
		c-1.5-1.1-2.2-2.7-2.2-4.6c0-0.8,0.1-1.4,0.2-1.9c1.9-7.2,5.9-12.4,12-15.8c6.1-3.4,14.6-5.1,25.6-5.1h11.1
		C1141.8,494.6,1151.3,497.7,1157.4,503.8z M1149.9,561.2c0.1-0.4,0.3-0.9,0.6-1.4v-15.5h-40.6c-4.3,0-7.6,0.4-9.8,1.3
		c-2.2,0.9-3.7,2.4-4.6,4.6c-0.9,2.2-1.3,5.4-1.3,9.8c0,4.3,0.4,7.6,1.3,9.8c0.9,2.2,2.4,3.7,4.6,4.6c2.2,0.9,5.4,1.3,9.8,1.3h10.7
		c16.2,0,25.9-4.4,28.9-13.2C1149.7,562.1,1149.8,561.6,1149.9,561.2z"/>
	<path class="st3" d="M1290.7,502.7v99.8c0,9.4-2.2,16.4-6.7,20.9c-4.5,4.5-11.4,6.7-20.9,6.7h-35.6c-15.5,0-24.4-6.3-26.8-19
		c-0.1-0.4-0.2-1-0.2-1.9c0-2,0.7-3.7,2.1-4.9c1.4-1.2,3.4-1.8,5.9-1.8c2.3,0,4,0.6,5.2,1.8c1.1,1.2,2.2,3.2,3.1,6
		c0.8,1.4,1.9,2.4,3.5,2.9c1.6,0.5,4,0.8,7.2,0.8h35.6c4.7,0,7.8-0.7,9.3-2.2c1.5-1.5,2.2-4.6,2.2-9.3v-22.2
		c-3.4,3.7-7.7,6.5-12.8,8.5c-5.1,2-10.8,3-17,3h-7.3c-12.8,0-22.2-3.1-28.4-9.2s-9.2-15.5-9.2-28.2v-22.2c0-12.9,3.1-22.4,9.2-28.5
		s15.6-9.1,28.4-9h15.7c9.2,0,16.3,2.7,21.5,8c0-5.4,2.7-8,8-8C1288,494.6,1290.7,497.3,1290.7,502.7z M1266.4,572.3
		c5.5-2.2,8.2-5.5,8.2-9.9v-38.3c0-5-1.8-8.5-5.4-10.4c-3.6-2-8.9-3-16.1-3h-15.7c-5.6-0.1-10,0.4-13,1.7c-3.1,1.3-5.2,3.4-6.5,6.5
		c-1.3,3.1-1.9,7.5-1.9,13.2v22.2c0,5.6,0.6,9.9,1.9,12.9c1.3,3,3.4,5.1,6.5,6.4c3.1,1.3,7.4,1.9,13,1.9h7.3
		C1253.7,575.7,1260.9,574.5,1266.4,572.3z"/>
	<path class="st3" d="M1340.1,549.8v4.6c0,5.6,0.6,9.9,1.9,12.9c1.3,3,3.4,5.1,6.5,6.4c3.1,1.3,7.4,1.9,13,1.9h15.7
		c6.5,0,11.3-0.6,14.5-1.8c3.1-1.2,5.2-3.4,6.2-6.4c0.8-2.6,1.8-4.4,3.1-5.7c1.3-1.2,3.1-1.8,5.6-1.8c2.4,0,4.3,0.5,5.7,1.6
		c1.3,1.1,2,2.7,2,4.7c0,0.9-0.1,1.5-0.2,1.9c-2.8,15.7-15.1,23.6-36.8,23.6h-15.7c-12.8,0-22.2-3.1-28.4-9.2s-9.2-15.5-9.2-28.2
		v-22.2c0-12.9,3.1-22.4,9.2-28.5s15.6-9.1,28.4-9h15.7c12.8,0,22.2,3.1,28.4,9.2c6.1,6.1,9.2,15.6,9.2,28.4v9.6
		c0,2.6-0.7,4.5-2.1,5.9c-1.4,1.4-3.4,2.1-5.9,2.1H1340.1z M1340.1,533.7h58.6v-1.5c0-5.6-0.6-10-1.9-13c-1.3-3.1-3.4-5.2-6.5-6.5
		c-3.1-1.3-7.4-1.9-13-1.9h-15.7c-5.6-0.1-10,0.4-13,1.7c-3.1,1.3-5.2,3.4-6.5,6.5c-1.3,3.1-1.9,7.5-1.9,13.2V533.7z"/>
	<path class="st3" d="M1444.5,571.6c-0.1-0.4-0.2-1-0.2-1.7c0-2.2,0.7-3.9,2.2-5.1c1.5-1.2,3.4-1.8,5.8-1.8c2.4,0,4.3,0.6,5.6,1.8
		c1.3,1.2,2.3,3.2,3.1,6c0.8,1.9,2,3.2,3.7,3.8c1.7,0.6,4.4,1,8.1,1h31.4c5,0,8.3-0.8,10.1-2.5c1.7-1.7,2.6-5,2.6-10.2
		c0-5.1-0.9-8.5-2.6-10.2c-1.7-1.7-5.1-2.5-10.1-2.5h-30.8c-18.5,0-27.8-9.3-27.8-27.8c0-9.4,2.3-16.5,6.9-21.1s11.6-6.9,20.9-6.9
		h29.9c15.1,0,23.9,6.3,26.6,19c0.1,0.4,0.2,1,0.2,1.7c0,2-0.7,3.7-2.2,4.9c-1.5,1.2-3.4,1.8-5.8,1.8c-2.4,0-4.2-0.6-5.5-1.8
		c-1.2-1.2-2.2-3.1-3-5.7c-0.8-1.5-1.9-2.6-3.4-3.1c-1.5-0.5-3.8-0.8-6.9-0.8h-29.9c-3.3,0-5.8,0.3-7.5,0.9
		c-1.7,0.6-2.8,1.7-3.4,3.4c-0.6,1.7-0.9,4.2-0.9,7.7c0,4.6,0.8,7.7,2.3,9.3c1.5,1.6,4.7,2.4,9.4,2.4h30.8
		c19.2,0,28.7,9.6,28.7,28.7c0,19.2-9.6,28.7-28.7,28.7h-31.4C1456.7,591.8,1447.2,585,1444.5,571.6z"/>
</g>
</svg>
