<?xml version="1.0"?>
<svg xmlns="http://www.w3.org/2000/svg" height="512px" viewBox="0 -22 512 512" width="512px" class=""><g transform="matrix(-1 0 0 1 512 0)"><path d="m307.5 270.011719h-22.5v-16.289063c8.730469-3.097656 15-11.433594 15-21.210937v-30c0-12.40625-10.09375-22.5-22.5-22.5s-22.5 10.09375-22.5 22.5v30c0 9.777343 6.269531 18.113281 15 21.210937v16.289063h-30v-127.5c0-4.140625-3.359375-7.5-7.5-7.5h-22.5v-22.5c0-4.140625-3.359375-7.5-7.5-7.5h-90c-4.140625 0-7.5 3.359375-7.5 7.5v22.5h-22.5c-4.140625 0-7.5 3.359375-7.5 7.5v127.5h-30v-16.289063c8.730469-3.097656 15-11.433594 15-21.210937v-30c0-12.40625-10.09375-22.5-22.5-22.5s-22.5 10.09375-22.5 22.5v30c0 9.777343 6.269531 18.113281 15 21.210937v16.289063h-22.5c-4.140625 0-7.5 3.359375-7.5 7.5v181.988281c0 4.140625 3.359375 7.5 7.5 7.5s7.5-3.359375 7.5-7.5v-54.488281h285v54.488281c0 4.140625 3.359375 7.5 7.5 7.5s7.5-3.359375 7.5-7.5v-181.988281c0-4.140625-3.359375-7.5-7.5-7.5zm-37.5-67.5c0-4.136719 3.363281-7.5 7.5-7.5s7.5 3.363281 7.5 7.5v30c0 4.136719-3.363281 7.5-7.5 7.5s-7.5-3.363281-7.5-7.5zm-240 0c0-4.136719 3.363281-7.5 7.5-7.5s7.5 3.363281 7.5 7.5v30c0 4.136719-3.363281 7.5-7.5 7.5s-7.5-3.363281-7.5-7.5zm195-52.5v120h-15v-120zm-105-30h75v22.492187 127.507813h-75zm-30 30h15v120h-15zm210 135v15h-285v-15zm-285 105v-75h285v75zm0 0" data-original="#000000" class="active-path" data-old_color="#223e32" fill="#223e32"/><path d="m142.5 210.011719c4.140625 0 7.5-3.359375 7.5-7.5v-15c0-4.140625-3.359375-7.5-7.5-7.5s-7.5 3.359375-7.5 7.5v15c0 4.140625 3.359375 7.5 7.5 7.5zm0 0" data-original="#000000" class="active-path" data-old_color="#223e32" fill="#223e32"/><path d="m172.5 210.011719c4.140625 0 7.5-3.359375 7.5-7.5v-15c0-4.140625-3.359375-7.5-7.5-7.5s-7.5 3.359375-7.5 7.5v15c0 4.140625 3.359375 7.5 7.5 7.5zm0 0" data-original="#000000" class="active-path" data-old_color="#223e32" fill="#223e32"/><path d="m142.5 165.011719c4.140625 0 7.5-3.359375 7.5-7.5v-15c0-4.140625-3.359375-7.5-7.5-7.5s-7.5 3.359375-7.5 7.5v15c0 4.140625 3.359375 7.5 7.5 7.5zm0 0" data-original="#000000" class="active-path" data-old_color="#223e32" fill="#223e32"/><path d="m172.5 165.011719c4.140625 0 7.5-3.359375 7.5-7.5v-15c0-4.140625-3.359375-7.5-7.5-7.5s-7.5 3.359375-7.5 7.5v15c0 4.140625 3.359375 7.5 7.5 7.5zm0 0" data-original="#000000" class="active-path" data-old_color="#223e32" fill="#223e32"/><path d="m142.5 255.011719c4.140625 0 7.5-3.359375 7.5-7.5v-15c0-4.140625-3.359375-7.5-7.5-7.5s-7.5 3.359375-7.5 7.5v15c0 4.140625 3.359375 7.5 7.5 7.5zm0 0" data-original="#000000" class="active-path" data-old_color="#223e32" fill="#223e32"/><path d="m172.5 255.011719c4.140625 0 7.5-3.359375 7.5-7.5v-15c0-4.140625-3.359375-7.5-7.5-7.5s-7.5 3.359375-7.5 7.5v15c0 4.140625 3.359375 7.5 7.5 7.5zm0 0" data-original="#000000" class="active-path" data-old_color="#223e32" fill="#223e32"/><path d="m461.511719 254.558594c28.410156-3.472656 50.488281-27.730469 50.488281-57.058594 0-29.484375-22.3125-53.847656-50.9375-57.113281-3.144531-11.726563-13.859375-20.386719-26.5625-20.386719h-50c-12.5625 0-23.179688 8.472656-26.453125 20h-68.546875c-4.136719 0-7.5-3.363281-7.5-7.5s3.363281-7.5 7.5-7.5h15c4.140625 0 7.5-3.359375 7.5-7.5v-23.789062c8.730469-3.097657 15-11.433594 15-21.210938v-30c0-12.40625-10.09375-22.5-22.5-22.5s-22.5 10.09375-22.5 22.5v30c0 9.777344 6.269531 18.113281 15 21.210938v16.289062h-7.5c-12.40625 0-22.5 10.09375-22.5 22.5s10.09375 22.5 22.5 22.5h67.5v92.5c0 14.269531 5.730469 27.21875 15 36.691406v159.902344l-24.871094 8.292969c-3.929687 1.308593-6.054687 5.554687-4.746094 9.484375 1.050782 3.144531 3.976563 5.132812 7.113282 5.132812.789062 0 1.589844-.125 2.375-.390625l30-10c3.0625-1.019531 5.128906-3.886719 5.128906-7.113281v-154.574219c6.824219 3.25 14.449219 5.074219 22.5 5.074219 8.046875 0 15.675781-1.824219 22.5-5.074219v154.574219c0 3.226562 2.066406 6.09375 5.128906 7.113281l30 10c.785156.265625 1.585938.390625 2.371094.390625 3.140625 0 6.066406-1.988281 7.113281-5.132812 1.3125-3.929688-.8125-8.175782-4.742187-9.484375l-24.871094-8.292969v-159.902344c7.714844-7.882812 12.964844-18.175781 14.511719-29.632812zm-164.511719-212.058594c0-4.136719 3.363281-7.5 7.5-7.5s7.5 3.363281 7.5 7.5v30c0 4.136719-3.363281 7.5-7.5 7.5s-7.5-3.363281-7.5-7.5zm200 155c0 20.875-15.132812 38.269531-35 41.824219v-83.648438c19.867188 3.554688 35 20.949219 35 41.824219zm-112.5-62.5h50c6.894531 0 12.5 5.605469 12.5 12.5v92.5h-75v-92.5c0-6.894531 5.605469-12.5 12.5-12.5zm-11.746094 120h73.492188c-3.484375 17.097656-18.636719 30-36.746094 30s-33.261719-12.902344-36.746094-30zm0 0" data-original="#000000" class="active-path" data-old_color="#223e32" fill="#223e32"/><path d="m409.5 105c28.949219 0 52.5-23.550781 52.5-52.5s-23.550781-52.5-52.5-52.5-52.5 23.550781-52.5 52.5 23.550781 52.5 52.5 52.5zm37.5-52.5c0 20.679688-16.820312 37.5-37.5 37.5-18.230469 0-33.453125-13.074219-36.804688-30.339844 25.03125-2.054687 47.914063-13.496094 64.605469-32.300781 6.023438 6.65625 9.699219 15.476563 9.699219 25.140625zm-37.5-37.5c5.582031 0 10.878906 1.234375 15.644531 3.433594-13.714843 14.933594-32.140625 24.144531-52.296875 26.144531 3.648438-16.882813 18.691406-29.578125 36.652344-29.578125zm0 0" data-original="#000000" class="active-path" data-old_color="#223e32" fill="#223e32"/></g> </svg>
