<?xml version="1.0" encoding="utf-8"?>
<!-- Generator: Adobe Illustrator 22.0.1, SVG Export Plug-In . SVG Version: 6.00 Build 0)  -->
<svg version="1.1" id="Слой_1" xmlns="http://www.w3.org/2000/svg" xmlns:xlink="http://www.w3.org/1999/xlink" x="0px" y="0px"
	 viewBox="0 0 120 80" style="enable-background:new 0 0 120 80;" xml:space="preserve">
<style type="text/css">
	
		.st0{fill:url(#SVGID_1_);stroke:#000000;stroke-width:0.5669;stroke-linecap:round;stroke-linejoin:round;stroke-miterlimit:22.9256;}
	.st1{fill:url(#SVGID_2_);stroke:#000000;stroke-width:0.5669;stroke-miterlimit:22.9256;}
	.st2{fill:url(#SVGID_3_);stroke:#000000;stroke-width:0.5669;stroke-miterlimit:22.9256;}
	.st3{fill:url(#SVGID_4_);stroke:#000000;stroke-width:0.5669;stroke-miterlimit:22.9256;}
	.st4{fill:url(#SVGID_5_);stroke:#000000;stroke-width:0.5669;stroke-miterlimit:22.9256;}
</style>
<g>
	<linearGradient id="SVGID_1_" gradientUnits="userSpaceOnUse" x1="61.4712" y1="40.7447" x2="33.3055" y2="6.5286">
		<stop  offset="0" style="stop-color:#FFFFFF"/>
		<stop  offset="1" style="stop-color:#000000"/>
	</linearGradient>
	<path class="st0" d="M10.5,0.1l16,58c0.4,1.3,2,3.3,3.7,2.5c0.9-0.7,1.5-1.5,2-2.9L42,21.5c0-0.6,1.3-2.1,2.8-2.1h14
		c1.2,0.1,2.8,1.2,3.3,3c3.5,12.7,7,25.3,10.5,38l4.8-17c0.4-2.4,1.8-4.2,4.7-4.4l27.4,0L106.9,50h-17l-7.4,27.5
		c-0.5,1.6-1.3,2.4-2.3,2.5l-14.5,0c-2-0.2-3-1.5-3.4-3.3L51.8,38.2l-5.4,20.3c-0.4,1.2-1.7,2.2-2.6,2.1l-13.4,0"/>
	<linearGradient id="SVGID_2_" gradientUnits="userSpaceOnUse" x1="53.0997" y1="47.6359" x2="24.934" y2="13.4197">
		<stop  offset="0" style="stop-color:#FFFFFF"/>
		<stop  offset="1" style="stop-color:#000000"/>
	</linearGradient>
	<polyline class="st1" points="36.6,41.4 25.3,0 10.5,0.1 	"/>
	<linearGradient id="SVGID_3_" gradientUnits="userSpaceOnUse" x1="63.6495" y1="38.9517" x2="35.4837" y2="4.7355">
		<stop  offset="0" style="stop-color:#FFFFFF"/>
		<stop  offset="1" style="stop-color:#000000"/>
	</linearGradient>
	<path class="st2" d="M51.8,38.2l4-14.8c0.9-2.5,1.5-3.1,3-4"/>
	<linearGradient id="SVGID_4_" gradientUnits="userSpaceOnUse" x1="77.9103" y1="27.2126" x2="49.7446" y2="-7.0036">
		<stop  offset="0" style="stop-color:#FFFFFF"/>
		<stop  offset="1" style="stop-color:#000000"/>
	</linearGradient>
	<path class="st3" d="M89.9,50c2.1-7.5,1.4-7.1,3-9.8c0.2-0.4,0.8-0.8,1.3-1.4"/>
	<linearGradient id="SVGID_5_" gradientUnits="userSpaceOnUse" x1="51.6221" y1="48.8522" x2="23.4564" y2="14.6361">
		<stop  offset="0" style="stop-color:#FFFFFF"/>
		<stop  offset="1" style="stop-color:#000000"/>
	</linearGradient>
	<path class="st4" d="M72.6,60.2l-4.4,16.9c-0.3,1.1-1,2.4-2.1,2.8l-0.4,0"/>
</g>
</svg>
