<?xml version="1.0"?>
<svg xmlns="http://www.w3.org/2000/svg" xmlns:xlink="http://www.w3.org/1999/xlink" version="1.1" id="Layer_1" x="0px" y="0px" viewBox="0 0 507.733 507.733" style="enable-background:new 0 0 507.733 507.733;" xml:space="preserve" width="512px" height="512px" class=""><g><g transform="translate(1 1)">
	<path style="fill:#04BF00" d="M39.533,310.467c25.6,0,34.133,68.267,34.133,102.4c0,18.773-15.36,34.133-34.133,34.133   S5.4,431.64,5.4,412.867C5.4,378.733,13.933,310.467,39.533,310.467z M483.267,464.067c9.387,0,17.067,7.68,17.067,17.067   s-7.68,17.067-17.067,17.067H415c-9.387,0-17.067-7.68-17.067-17.067s7.68-17.067,17.067-17.067c3.413,0,6.827,0.853,9.387,2.56   c0.853-5.12,4.267-10.24,7.68-13.653c4.267-4.267,10.24-5.973,17.067-5.973c11.947,0,22.187,8.533,24.747,19.627   C476.44,464.92,479.853,464.067,483.267,464.067z" data-original="#7EE1E6" class="" data-old_color="#04bf00"/>
	<path style="fill:#EFF9FB" d="M432.067,452.973L432.067,452.973c-3.413,3.413-6.827,8.533-7.68,13.653   c-2.56-1.707-5.973-2.56-9.387-2.56c-9.387,0-17.067,7.68-17.067,17.067v-51.2v-68.267V293.4v-68.267v-68.267V88.6h-51.2h-51.2   h-51.2h-51.2h-51.2v68.267v68.267V293.4v68.267v68.267V498.2H107.8V54.467h68.267H363.8h68.267V452.973L432.067,452.973z    M363.8,20.333v34.133H176.067V20.333h68.267V3.267h51.2v17.067H363.8L363.8,20.333z" data-original="#C49AE9" class="" data-old_color="#eff9fb"/>
	<rect x="141.933" y="88.6" style="fill:#EFF9FB" width="256" height="418.133" data-original="#E4F2DE" class="active-path" data-old_color="#eff9fb"/>
</g><path style="fill:#223E32" d="M484.267,503.467c-2.56,0-4.267-1.707-4.267-4.267c0-2.56,1.707-4.267,4.267-4.267  c6.827,0,12.8-5.973,12.8-12.8s-5.973-12.8-12.8-12.8c-2.56,0-5.12,0.853-6.827,1.707c-0.853,0.853-2.56,0.853-4.267,0  s-2.56-1.707-2.56-3.413c-2.56-9.387-11.093-16.213-20.48-16.213s-18.773,6.827-20.48,16.213c0,1.707-0.853,2.56-2.56,3.413  s-2.56,0-4.267,0c-1.707-1.707-4.267-1.707-6.827-1.707c-6.827,0-12.8,5.973-12.8,12.8s5.973,12.8,12.8,12.8  c2.56,0,4.267,1.707,4.267,4.267c0,2.56-1.707,4.267-4.267,4.267H142.933c-2.56,0-4.267-1.707-4.267-4.267V89.6  c0-2.56,1.707-4.267,4.267-4.267h256c2.56,0,4.267,1.707,4.267,4.267v349.867c0,2.56-1.707,4.267-4.267,4.267  s-4.267-1.707-4.267-4.267V435.2H352v59.733h46.933c-2.56-3.413-4.267-7.68-4.267-12.8c0-11.947,9.387-21.333,21.333-21.333  c2.56,0,4.267,0,6.827,0.853c4.267-11.093,15.36-17.92,27.307-17.92s23.04,6.827,27.307,17.92c2.56-0.853,4.267-0.853,6.827-0.853  c11.947,0,21.333,9.387,21.333,21.333S496.213,503.467,484.267,503.467z M300.8,494.933h42.667V435.2H300.8V494.933z M249.6,494.933  h42.667V435.2H249.6V494.933z M198.4,494.933h42.667V435.2H198.4V494.933z M147.2,494.933h42.667V435.2H147.2V494.933z M352,426.667  h42.667v-59.733H352V426.667z M300.8,426.667h42.667v-59.733H300.8V426.667z M249.6,426.667h42.667v-59.733H249.6V426.667z   M198.4,426.667h42.667v-59.733H198.4V426.667z M147.2,426.667h42.667v-59.733H147.2V426.667z M352,358.4h42.667v-59.733H352V358.4z   M300.8,358.4h42.667v-59.733H300.8V358.4z M249.6,358.4h42.667v-59.733H249.6V358.4z M198.4,358.4h42.667v-59.733H198.4V358.4z   M147.2,358.4h42.667v-59.733H147.2V358.4z M352,290.133h42.667V230.4H352V290.133z M300.8,290.133h42.667V230.4H300.8V290.133z   M249.6,290.133h42.667V230.4H249.6V290.133z M198.4,290.133h42.667V230.4H198.4V290.133z M147.2,290.133h42.667V230.4H147.2  V290.133z M352,221.867h42.667v-59.733H352V221.867z M300.8,221.867h42.667v-59.733H300.8V221.867z M249.6,221.867h42.667v-59.733  H249.6V221.867z M198.4,221.867h42.667v-59.733H198.4V221.867z M147.2,221.867h42.667v-59.733H147.2V221.867z M352,153.6h42.667  V93.867H352V153.6z M300.8,153.6h42.667V93.867H300.8V153.6z M249.6,153.6h42.667V93.867H249.6V153.6z M198.4,153.6h42.667V93.867  H198.4V153.6z M147.2,153.6h42.667V93.867H147.2V153.6z M108.8,503.467H6.4c-2.56,0-4.267-1.707-4.267-4.267  c0-2.56,1.707-4.267,4.267-4.267h29.867v-42.667c-18.773-2.56-34.133-18.773-34.133-38.4C2.133,384,8.96,307.2,40.533,307.2  s38.4,76.8,38.4,106.667c0,19.627-15.36,35.84-34.133,38.4v42.667h59.733V55.467c0-2.56,1.707-4.267,4.267-4.267h64V21.333  c0-2.56,1.707-4.267,4.267-4.267h64v-12.8c0-2.56,1.707-4.267,4.267-4.267h51.2c2.56,0,4.267,1.707,4.267,4.267v12.8h64  c2.56,0,4.267,1.707,4.267,4.267V51.2h64c2.56,0,4.267,1.707,4.267,4.267v362.667c0,2.56-1.707,4.267-4.267,4.267  s-4.267-1.707-4.267-4.267v-358.4H211.2c-2.56,0-4.267-1.707-4.267-4.267c0-2.56,1.707-4.267,4.267-4.267h149.333V25.6h-64  c-2.56,0-4.267-1.707-4.267-4.267v-12.8H249.6v12.8c0,2.56-1.707,4.267-4.267,4.267h-64v29.867c0,2.56-1.707,4.267-4.267,4.267h-64  V499.2C113.067,501.76,111.36,503.467,108.8,503.467z M40.533,315.733c-19.627,0-29.867,58.027-29.867,98.133  c0,16.213,13.653,29.867,29.867,29.867S70.4,430.08,70.4,413.867C70.4,373.76,60.16,315.733,40.533,315.733z" data-original="#51565F" class="" data-old_color="#223e32"/></g> </svg>
