<svg width="15" height="91" viewBox="0 0 15 91" fill="none" xmlns="http://www.w3.org/2000/svg">
<line x1="14.1755" y1="89.2529" x2="6.65799" y2="86.5168" stroke="#282923" stroke-width="2"/>
<line x1="7.85957" y1="86.5168" x2="0.342027" y2="89.253" stroke="#282923" stroke-width="2"/>
<line x1="14.1755" y1="81.5166" x2="6.65799" y2="78.7804" stroke="#282923" stroke-opacity="0.95" stroke-width="2"/>
<line x1="7.85957" y1="78.7805" x2="0.342027" y2="81.5167" stroke="#282923" stroke-opacity="0.95" stroke-width="2"/>
<line x1="14.1755" y1="73.7803" x2="6.65799" y2="71.0441" stroke="#282923" stroke-opacity="0.9" stroke-width="2"/>
<line x1="7.85957" y1="71.0442" x2="0.342027" y2="73.7803" stroke="#282923" stroke-opacity="0.9" stroke-width="2"/>
<line x1="14.1755" y1="66.0439" x2="6.65799" y2="63.3078" stroke="#282923" stroke-opacity="0.85" stroke-width="2"/>
<line x1="7.85957" y1="63.3079" x2="0.342027" y2="66.044" stroke="#282923" stroke-opacity="0.85" stroke-width="2"/>
<line x1="14.1755" y1="58.3076" x2="6.65799" y2="55.5715" stroke="#282923" stroke-opacity="0.8" stroke-width="2"/>
<line x1="7.85957" y1="55.5715" x2="0.342027" y2="58.3077" stroke="#282923" stroke-opacity="0.8" stroke-width="2"/>
<line x1="14.1755" y1="50.5713" x2="6.65799" y2="47.8351" stroke="#282923" stroke-opacity="0.75" stroke-width="2"/>
<line x1="7.85957" y1="47.8352" x2="0.342027" y2="50.5714" stroke="#282923" stroke-opacity="0.75" stroke-width="2"/>
<line x1="14.1755" y1="42.835" x2="6.65799" y2="40.0988" stroke="#282923" stroke-opacity="0.7" stroke-width="2"/>
<line x1="7.85957" y1="40.0989" x2="0.342027" y2="42.835" stroke="#282923" stroke-opacity="0.7" stroke-width="2"/>
<line x1="14.1755" y1="35.0986" x2="6.65799" y2="32.3625" stroke="#282923" stroke-opacity="0.6" stroke-width="2"/>
<line x1="7.85957" y1="32.3625" x2="0.342027" y2="35.0987" stroke="#282923" stroke-opacity="0.6" stroke-width="2"/>
<line x1="14.1755" y1="26.885" x2="6.65799" y2="24.1488" stroke="#282923" stroke-opacity="0.55" stroke-width="2"/>
<line x1="7.85957" y1="24.1489" x2="0.342027" y2="26.8851" stroke="#282923" stroke-opacity="0.55" stroke-width="2"/>
<line x1="14.1755" y1="19.1487" x2="6.65799" y2="16.4125" stroke="#282923" stroke-opacity="0.5" stroke-width="2"/>
<line x1="7.85957" y1="16.4126" x2="0.342027" y2="19.1488" stroke="#282923" stroke-opacity="0.5" stroke-width="2"/>
<line x1="14.1755" y1="11.4123" x2="6.65799" y2="8.67619" stroke="#282923" stroke-opacity="0.45" stroke-width="2"/>
<line x1="7.85957" y1="8.67626" x2="0.342027" y2="11.4124" stroke="#282923" stroke-opacity="0.45" stroke-width="2"/>
<line x1="14.1755" y1="3.67602" x2="6.65799" y2="0.93986" stroke="#282923" stroke-opacity="0.4" stroke-width="2"/>
<line x1="7.85957" y1="0.939937" x2="0.342027" y2="3.6761" stroke="#282923" stroke-opacity="0.4" stroke-width="2"/>
</svg>
