<?xml version="1.0" encoding="utf-8"?><svg xmlns="http://www.w3.org/2000/svg" xmlns:xlink="http://www.w3.org/1999/xlink"><symbol viewBox="0 0 428.429 428.429" id="basket" xmlns="http://www.w3.org/2000/svg"><path d="M426.59 170.59c-2.597-21.785-22.362-37.34-44.147-34.743H360.5C357.122 59.212 293.531-.91 216.827.01h-5.224C134.898-.91 71.308 59.212 67.929 135.847H45.986c-21.785-2.597-41.55 12.958-44.147 34.743-2.597 21.785 12.958 41.55 34.743 44.147v162.482c-.006 28.277 22.912 51.205 51.189 51.211.352 0 .704-.004 1.056-.011h250.775c28.271.577 51.657-21.873 52.234-50.144.007-.352.011-.704.011-1.056V214.737c21.785-2.597 37.34-22.362 34.743-44.147zM211.602 20.908h5.224c64.558.629 117.896 50.562 122.775 114.939H88.827c4.88-64.377 58.217-114.309 122.775-114.939zm159.347 356.311c.01 16.735-13.549 30.31-30.284 30.32-.354 0-.709-.006-1.063-.018H88.827c-16.725.577-30.752-12.514-31.329-29.239a31.404 31.404 0 0 1-.018-1.063V214.215h313.469v163.004zm11.494-183.902H45.986c-10.099 0-18.286-8.187-18.286-18.286 0-10.099 8.187-18.286 18.286-18.286h336.457c10.099 0 18.286 8.187 18.286 18.286 0 10.099-8.187 18.286-18.286 18.286z"/><path d="M214.215 365.202c5.771 0 10.449-4.678 10.449-10.449v-83.592c.297-5.474-3.901-10.152-9.375-10.449a10.125 10.125 0 0 0-1.074 0c-5.474-.297-10.152 3.901-10.449 9.375-.019.358-.019.716 0 1.074v83.592c0 5.771 4.678 10.449 10.449 10.449zm78.367 0c5.771 0 10.449-4.678 10.449-10.449v-83.592c.297-5.474-3.901-10.152-9.375-10.449a10.125 10.125 0 0 0-1.074 0c-5.474-.297-10.152 3.901-10.449 9.375-.019.358-.019.716 0 1.074v83.592c0 5.771 4.678 10.449 10.449 10.449zm-156.735 0c5.771 0 10.449-4.678 10.449-10.449v-83.592c.297-5.474-3.901-10.152-9.375-10.449a10.125 10.125 0 0 0-1.074 0c-5.474-.297-10.152 3.901-10.449 9.375-.019.358-.019.716 0 1.074v83.592c0 5.771 4.679 10.449 10.449 10.449z"/></symbol><symbol viewBox="0 0 129 129" id="down-arrow" xmlns="http://www.w3.org/2000/svg"><path d="M121.3 34.6c-1.6-1.6-4.2-1.6-5.8 0l-51 51.1-51.1-51.1c-1.6-1.6-4.2-1.6-5.8 0-1.6 1.6-1.6 4.2 0 5.8l53.9 53.9c.8.8 1.8 1.2 2.9 1.2 1 0 2.1-.4 2.9-1.2l53.9-53.9c1.7-1.6 1.7-4.2.1-5.8z"/></symbol><symbol viewBox="0 0 330 330" id="efficiency" xmlns="http://www.w3.org/2000/svg"><path d="M315 120h-22.688a134.198 134.198 0 0 0-5.477-13.196l16.05-16.05c5.858-5.858 5.858-15.355.001-21.213L260.46 27.114a15.002 15.002 0 0 0-21.213 0l-16.051 16.05A134.19 134.19 0 0 0 210 37.688V15c0-8.284-6.716-15-15-15h-60c-8.284 0-15 6.716-15 15v22.688a134.215 134.215 0 0 0-13.195 5.476l-16.051-16.05c-5.857-5.858-15.355-5.858-21.213 0L27.114 69.541c-5.858 5.858-5.858 15.355 0 21.213l16.05 16.051A134.309 134.309 0 0 0 37.689 120H15c-8.284 0-15 6.716-15 15v60c0 8.284 6.716 15 15 15h22.689a134.554 134.554 0 0 0 5.475 13.195l-16.05 16.051a15 15 0 0 0 0 21.213l42.428 42.426c5.858 5.857 15.355 5.857 21.212 0l16.052-16.049A134.502 134.502 0 0 0 120 292.312V315c0 8.284 6.716 15 15 15h60c8.284 0 15-6.716 15-15v-22.689a134.09 134.09 0 0 0 13.196-5.476l16.052 16.05c5.857 5.857 15.354 5.858 21.212-.001l42.426-42.426c5.858-5.858 5.858-15.355 0-21.213l-16.05-16.05a134.097 134.097 0 0 0 5.477-13.196H315c8.284 0 15-6.716 15-15v-60c0-8.283-6.716-14.999-15-14.999zm-15 60h-18.781a14.999 14.999 0 0 0-14.527 11.264 104.192 104.192 0 0 1-11.227 27.058 15 15 0 0 0 2.308 18.237l13.294 13.294-21.213 21.213-13.295-13.293a15 15 0 0 0-18.234-2.308 104.395 104.395 0 0 1-27.063 11.229A14.998 14.998 0 0 0 180 281.22V300h-30v-18.78a15 15 0 0 0-11.261-14.526 104.362 104.362 0 0 1-27.062-11.229 14.996 14.996 0 0 0-18.234 2.308l-13.295 13.293-21.215-21.214 13.294-13.294a14.998 14.998 0 0 0 2.308-18.236 104.336 104.336 0 0 1-11.228-27.061A14.999 14.999 0 0 0 48.781 180H30v-30h18.781a15 15 0 0 0 14.526-11.261 104.293 104.293 0 0 1 11.228-27.062 14.998 14.998 0 0 0-2.308-18.236L58.934 80.147l21.214-21.213 13.294 13.293a15 15 0 0 0 18.236 2.308 104.34 104.34 0 0 1 27.062-11.229A14.998 14.998 0 0 0 150 48.78V30h30v18.78a15 15 0 0 0 11.261 14.526 104.317 104.317 0 0 1 27.063 11.229 15 15 0 0 0 18.236-2.308l13.294-13.293 21.213 21.213-13.294 13.294a15 15 0 0 0-2.308 18.237 104.198 104.198 0 0 1 11.227 27.058 15 15 0 0 0 14.527 11.263H300V180z"/><path d="M186.394 132.394L152 166.787l-9.394-9.393c-5.857-5.858-15.355-5.858-21.213 0-5.858 5.858-5.858 15.355 0 21.213l20 20A14.953 14.953 0 0 0 152 203c3.839 0 7.678-1.464 10.606-4.394l45-45c5.858-5.858 5.858-15.355 0-21.213-5.857-5.858-15.355-5.858-21.212.001z"/></symbol><symbol viewBox="0 0 129 129" id="favorites" xmlns="http://www.w3.org/2000/svg"><path d="M121.6 40.1c-3.3-16.6-15.1-27.3-30.3-27.3-8.5 0-17.7 3.5-26.7 10.1-9.1-6.8-18.3-10.3-26.9-10.3-15.2 0-27.1 10.8-30.3 27.6-4.8 24.9 10.6 58 55.7 76 .5.2 1 .3 1.5.3s1-.1 1.5-.3c45-18.4 60.3-51.4 55.5-76.1zm-57 67.9C25 91.6 11.3 63 15.4 41.7c2.4-12.7 11.2-21 22.3-21 7.5 0 15.9 3.6 24.3 10.5 1.5 1.2 3.6 1.2 5.1 0C75.5 24.5 83.8 21 91.3 21c11.1 0 19.8 8.1 22.3 20.7 4.1 21.1-9.5 49.6-49 66.3z"/></symbol><symbol viewBox="0 0 478.613 478.613" id="github-big-logo" xmlns="http://www.w3.org/2000/svg"><path d="M427.501 200.695c1.776-11.238 2.884-23.56 3.163-37.377-.107-59.246-28.468-80.21-33.925-90.038 8.037-44.89-1.331-65.309-5.688-72.299-16.07-5.704-55.91 14.722-77.678 29.101-35.491-10.389-110.494-9.375-138.621 2.689C122.856-4.389 95.408 1.277 95.408 1.277s-17.745 31.82-4.691 78.371c-17.075 21.759-29.802 37.143-29.802 77.949 0 9.773.607 19.008 1.637 27.893 14.705 77.318 75.97 110.674 136.15 116.426-9.056 6.881-19.928 19.903-21.432 34.992-11.379 7.357-34.268 9.789-52.067 4.193-24.939-7.88-34.486-57.266-71.833-50.221-8.081 1.512-6.475 6.842.523 11.386 11.378 7.38 22.094 16.554 30.354 36.185 6.344 15.072 19.687 41.982 61.873 41.982 16.747 0 28.477-1.979 28.477-1.979s.319 38.406.319 53.385c0 17.238-23.264 22.078-23.264 30.348 0 3.289 7.7 3.601 13.888 3.601 12.229 0 37.673-10.186 37.673-28.103 0-14.237.227-62.081.227-70.46 0-18.307 9.811-24.136 9.811-24.136s1.201 97.727-2.361 110.829c-4.177 15.408-11.744 13.219-11.744 20.076 0 10.233 30.589 2.502 40.735-19.897 7.849-17.495 4.334-113.331 4.334-113.331l8.183-.178s.094 43.892-.188 63.944c-.295 20.769-2.438 47.025 9.898 59.417 8.097 8.15 32.903 22.451 32.903 9.382 0-7.574-17.371-13.833-17.371-34.353V344.45c10.553 0 12.734 31.072 12.734 31.072l3.804 57.727s-2.526 21.065 22.756 29.856c8.925 3.126 28.018 3.976 28.913-1.271.897-5.26-22.99-13.038-23.217-29.342-.123-9.93.445-15.742.445-58.934 0-43.168-5.799-59.137-26.007-71.863 58.601-6.014 119.468-32.185 130.433-101z"/></symbol><symbol viewBox="0 0 454.656 454.656" id="guarantee" xmlns="http://www.w3.org/2000/svg"><path d="M454.656 227.584l-38.912-50.688 8.704-62.976-59.392-23.552-23.552-59.392-62.976 8.704-51.2-39.424-50.688 38.912-62.976-8.704-23.552 59.392-59.392 23.552 8.704 62.976L0 227.584l38.912 50.688-8.704 62.976L89.6 364.8l23.552 59.392 62.976-8.704 50.688 38.912 50.688-38.912 62.976 8.704 23.552-59.392 59.392-24.064-8.704-62.976 39.936-50.176zm-245.76 73.728l-75.776-62.464 16.384-19.968 56.32 46.08 96.256-111.104 19.456 16.896-112.64 130.56z"/></symbol><symbol viewBox="0 0 169.063 169.063" id="instagram-logo" xmlns="http://www.w3.org/2000/svg"><path d="M122.406 0H46.654C20.929 0 0 20.93 0 46.655v75.752c0 25.726 20.929 46.655 46.654 46.655h75.752c25.727 0 46.656-20.93 46.656-46.655V46.655C169.063 20.93 148.133 0 122.406 0zm31.657 122.407c0 17.455-14.201 31.655-31.656 31.655H46.654C29.2 154.063 15 139.862 15 122.407V46.655C15 29.201 29.2 15 46.654 15h75.752c17.455 0 31.656 14.201 31.656 31.655v75.752z"/><path d="M84.531 40.97c-24.021 0-43.563 19.542-43.563 43.563 0 24.02 19.542 43.561 43.563 43.561s43.563-19.541 43.563-43.561c0-24.021-19.542-43.563-43.563-43.563zm0 72.123c-15.749 0-28.563-12.812-28.563-28.561 0-15.75 12.813-28.563 28.563-28.563s28.563 12.813 28.563 28.563c0 15.749-12.814 28.561-28.563 28.561zm45.39-84.842c-2.89 0-5.729 1.17-7.77 3.22a11.053 11.053 0 0 0-3.23 7.78c0 2.891 1.18 5.73 3.23 7.78 2.04 2.04 4.88 3.22 7.77 3.22 2.9 0 5.73-1.18 7.78-3.22 2.05-2.05 3.22-4.89 3.22-7.78 0-2.9-1.17-5.74-3.22-7.78-2.04-2.05-4.88-3.22-7.78-3.22z"/></symbol><symbol viewBox="0 0 487.7 487.7" id="list" xmlns="http://www.w3.org/2000/svg"><path d="M80.2 62.7c-4.8-4.8-12.5-4.8-17.3-.1-4.9 4.8-4.9 12.5-.1 17.3L92 109.3c2.3 2.3 5.4 3.6 8.7 3.6 3.2 0 6.3-1.3 8.6-3.6l88.9-88.4c4.8-4.8 4.8-12.5.1-17.3-4.8-4.8-12.5-4.8-17.3 0l-26.9 26.7C139.8 15.5 119.9 7 99 7 56.7 7 22.3 41.4 22.3 83.7s34.4 76.7 76.7 76.7c34.1 0 63.6-21.9 73.5-54.5 2-6.5-1.7-13.3-8.2-15.3-6.5-1.9-13.3 1.7-15.3 8.2-6.6 21.8-27.2 37.1-50 37.1-28.8 0-52.2-23.4-52.2-52.2S70.2 31.5 99 31.5c14.3 0 27.9 6 37.7 16.2l-35.9 35.7-20.6-20.7zM99 170.6c-42.3 0-76.7 34.4-76.7 76.7S56.7 324 99 324s76.7-34.4 76.7-76.7-34.4-76.7-76.7-76.7zm0 128.9c-28.8 0-52.2-23.4-52.2-52.2s23.4-52.2 52.2-52.2 52.2 23.4 52.2 52.2-23.4 52.2-52.2 52.2zM175.7 411c0-42.3-34.4-76.7-76.7-76.7S22.3 368.7 22.3 411s34.4 76.7 76.7 76.7 76.7-34.4 76.7-76.7zM99 463.3c-28.8 0-52.2-23.4-52.2-52.2s23.4-52.2 52.2-52.2 52.2 23.4 52.2 52.2-23.4 52.2-52.2 52.2zM453.1 235H214.8c-6.8 0-12.3 5.5-12.3 12.3s5.5 12.3 12.3 12.3h238.3c6.8 0 12.3-5.5 12.3-12.3s-5.5-12.3-12.3-12.3zm0-163.5H214.8c-6.8 0-12.3 5.5-12.3 12.3s5.5 12.3 12.3 12.3h238.3c6.8 0 12.3-5.5 12.3-12.3s-5.5-12.3-12.3-12.3zm0 327.3H214.8c-6.8 0-12.3 5.5-12.3 12.3s5.5 12.3 12.3 12.3h238.3c6.8 0 12.3-5.5 12.3-12.3 0-6.9-5.5-12.3-12.3-12.3z"/></symbol><symbol viewBox="0 0 512 512" id="login" xmlns="http://www.w3.org/2000/svg"><path d="M341.598 290.667a10.626 10.626 0 0 0 1.365-11.349l-.555-1.195c4.501-6.187 10.261-15.957 10.261-32.768 0-7.552 2.24-10.667 2.581-10.987a10.668 10.668 0 0 0 7.317-6.379c1.195-2.923 11.435-29.077 11.435-46.635 0-.896-.107-1.771-.299-2.603-1.173-4.672-4.437-11.52-10.347-15.531v-56.555c0-34.368-10.496-48.448-21.568-56.64C339.699 33.472 321.971 0 256.67 0c-66.091 0-106.667 62.123-106.667 106.667v56.555c-5.909 4.011-9.173 10.859-10.347 15.531-.213.853-.32 1.707-.32 2.581 0 17.557 10.24 43.712 11.435 46.635 1.28 3.179 3.136 5.291 6.485 6.123 1.173.576 3.413 3.691 3.413 11.243 0 20.267 15.211 42.795 31.531 57.771-2.219 13.973-12.651 50.816-34.901 60.117l-94.677 31.552c-24.341 8.107-42.581 27.819-48.832 52.736L.968 498.752c-.789 3.179-.085 6.571 1.963 9.152 2.048 2.581 5.12 4.096 8.405 4.096h.021l276.011-.277c5.867 0 10.624-4.928 10.624-10.816v-128c0-11.819 6.635-22.613 17.28-28.203a10.671 10.671 0 0 0 5.589-7.808c2.625-16.917 9.793-32.896 20.737-46.229z"/><path d="M500.681 362.219h-10.667v-10.667c0-41.173-33.493-74.667-74.667-74.667s-74.667 33.493-74.667 74.667v10.667h-10.667c-5.888 0-10.667 4.779-10.667 10.667v128c0 5.888 4.779 10.667 10.667 10.667H500.68c5.888 0 10.667-4.779 10.667-10.667v-128c0-5.889-4.778-10.667-10.666-10.667zm-74.667 82.069v13.952c0 5.888-4.779 10.667-10.667 10.667s-10.667-4.779-10.667-10.667v-13.952c-6.251-3.733-10.667-10.261-10.667-18.048 0-11.755 9.557-21.333 21.333-21.333s21.333 9.579 21.333 21.333c.002 7.787-4.415 14.315-10.665 18.048zm42.667-82.069H362.014v-10.667c0-29.397 23.915-53.333 53.333-53.333s53.333 23.936 53.333 53.333v10.667z"/></symbol><symbol viewBox="0 0 512 512" id="medal" xmlns="http://www.w3.org/2000/svg"><path d="M493.563 431.87l-58.716-125.913c-32.421 47.207-83.042 80.822-141.639 91.015l49.152 105.401c6.284 13.487 25.732 12.587 30.793-1.341l25.193-69.204 5.192-2.421 69.205 25.193c13.887 5.096 27.096-9.296 20.82-22.73zM256.001 0C154.815 0 72.485 82.325 72.485 183.516s82.331 183.516 183.516 183.516c101.186 0 183.516-82.325 183.516-183.516S357.188 0 256.001 0zm89.294 170.032l-32.541 31.722 7.69 44.804c2.351 13.679-12.062 23.956-24.211 17.585l-40.231-21.148-40.231 21.147c-12.219 6.416-26.549-3.982-24.211-17.585l7.69-44.804-32.541-31.722c-9.89-9.642-4.401-26.473 9.245-28.456l44.977-6.533 20.116-40.753c6.087-12.376 23.819-12.387 29.913 0l20.116 40.753 44.977 6.533c13.644 1.982 19.132 18.814 9.242 28.457zM77.156 305.957L18.44 431.87c-6.305 13.497 7.023 27.81 20.821 22.727l69.204-25.193 5.192 2.421 25.193 69.205c5.051 13.899 24.496 14.857 30.793 1.342l49.152-105.401c-58.597-10.192-109.217-43.806-141.639-91.014z"/></symbol><symbol viewBox="0 0 424.98 424.98" id="payment" xmlns="http://www.w3.org/2000/svg"><path d="M241.395 282.304c-1.587-1.738-3.595-3.038-5.67-4.121-4.518-2.356-9.459-3.785-14.365-5.075v38.016c7.963-.9 17.105-3.79 21.286-11.224 1.996-3.551 2.393-7.914 1.58-11.867-.441-2.142-1.352-4.108-2.831-5.729z"/><path d="M242.604 299.973l.042-.073a4.74 4.74 0 0 0-.042.073zm-58.595-78.441c-1.369 1.999-2.228 4.27-2.465 6.684-.237 2.419-.104 5.11.815 7.387.875 2.17 2.708 3.772 4.6 5.062 2.123 1.444 4.458 2.572 6.836 3.528 1.995.803 4.239 1.571 6.658 2.313v-34.4c-6.111 1.304-12.788 4.088-16.444 9.426zm58.795 78.087c-.05.089-.104.182-.157.28.062-.114.111-.198.157-.28zm.2-.356c.013-.024.015-.026 0 0z"/><path d="M234.753 92.469c32.329-27.158 53.931-88.341 40.637-91.017-17.664-3.557-56.022 12.04-74.562 14.788-26.296 3.175-54.936-28.515-71.012-10.851-13.071 14.362 9.371 66.592 44.482 89.346-104.752 51.484-251.988 309.938 4.873 328.691 355.411 25.949 177.444-280.787 55.582-330.957zm30.523 203.829c-1.093 10.076-6.433 19.188-14.415 25.374-8.428 6.532-18.999 9.57-29.502 10.421v11.133c0 2.979-1.301 5.86-3.531 7.832-3.065 2.712-7.569 3.381-11.289 1.667-3.673-1.69-6.086-5.457-6.086-9.499v-12.168a68.538 68.538 0 0 1-5.356-1.234c-9.816-2.697-18.921-7.954-25.572-15.732-3.313-3.877-6.014-8.276-7.882-13.025a47.162 47.162 0 0 1-1.304-3.783c-.345-1.157-.701-2.333-.824-3.539a10.46 10.46 0 0 1 1.137-5.889c1.938-3.707 6.022-5.946 10.192-5.574 4.104.364 7.701 3.212 8.993 7.124.398 1.205.668 2.44 1.115 3.632a23.292 23.292 0 0 0 1.607 3.431 26.647 26.647 0 0 0 4.59 5.875c3.694 3.559 8.399 5.872 13.304 7.248V268.23c-9.591-2.483-19.491-5.69-27.411-11.848-3.849-2.994-7.115-6.714-9.254-11.117-2.257-4.647-3.192-9.824-3.23-14.966-.039-5.221.953-10.396 3.131-15.153 2.04-4.454 4.977-8.453 8.578-11.768 7.7-7.087 17.928-11.04 28.187-12.492v-11.557c0-2.978 1.301-5.86 3.531-7.832 3.066-2.711 7.568-3.381 11.289-1.667 3.672 1.691 6.086 5.457 6.086 9.499v11.494c1.367.172 2.73.378 4.086.624 10.074 1.823 19.927 5.983 27.294 13.246a39.888 39.888 0 0 1 8.356 12.009 38.31 38.31 0 0 1 1.477 3.824c.396 1.213.794 2.462.983 3.728a10.467 10.467 0 0 1-.871 5.958c-1.772 3.788-5.746 6.2-9.927 6.021-4.108-.179-7.83-2.854-9.301-6.694-.438-1.142-.657-2.351-1.104-3.49a18.419 18.419 0 0 0-1.708-3.292c-1.308-2.02-3.003-3.752-4.938-5.179-4.19-3.094-9.272-4.706-14.35-5.607v39.582c6.035 1.445 12.075 3.021 17.857 5.301 8.739 3.446 17.02 8.73 21.79 17.062-.74-1.298-1.46-2.563.025.043 1.458 2.56.762 1.34.03.057 3.795 6.688 5.042 14.685 4.217 22.282z"/><path d="M242.493 300.169l-.156.278c.036-.063.09-.158.156-.278z"/></symbol><symbol viewBox="0 0 41.999 41.999" id="play-button" xmlns="http://www.w3.org/2000/svg"><path d="M36.068 20.176l-29-20A1 1 0 1 0 5.5.999v40a1 1 0 0 0 1.568.823l29-20a.999.999 0 0 0 0-1.646z"/></symbol><symbol viewBox="0 0 525.153 525.153" id="private-eye" xmlns="http://www.w3.org/2000/svg"><path d="M262.576 83.543C143.235 83.543 41.29 157.765 0 262.576c41.29 104.812 143.235 179.033 262.576 179.033s221.264-74.221 262.576-179.033C483.841 157.765 381.917 83.543 262.576 83.543zm0 298.374c-65.885 0-119.341-53.456-119.341-119.341s53.456-119.341 119.341-119.341 119.341 53.456 119.341 119.341-53.456 119.341-119.341 119.341zm0-190.937c-39.649 0-71.596 31.969-71.596 71.596s31.969 71.596 71.596 71.596 71.596-31.969 71.596-71.596-31.947-71.596-71.596-71.596z"/></symbol><symbol viewBox="0 0 512 512" id="quality" xmlns="http://www.w3.org/2000/svg"><path d="M482 287c0-24.813-20.187-45-45-45h-66.833c8.28-22.387 13.415-48.978 16.417-69.121a70.494 70.494 0 0 0-16.327-56.473A70.25 70.25 0 0 0 317 92c-8.284 0-15 6.716-15 15 0 36.237-20.825 90.941-45.128 103.126-27.356 13.713-81.172 28.91-91.891 31.874H15.001c-8.284 0-15 6.716-15 15v210C0 475.284 6.716 482 15 482h45v15c0 8.284 6.716 15 15 15h62c18.321 0 34.108-11.011 41.122-26.758l105.24 26.31c1.19.297 2.412.448 3.638.448h90c24.813 0 45-20.187 45-45a44.773 44.773 0 0 0-3.164-16.579C437.924 445.211 452 427.718 452 407a44.773 44.773 0 0 0-3.164-16.579C467.924 385.211 482 367.718 482 347c0-11.515-4.347-22.033-11.486-30 7.139-7.967 11.486-18.485 11.486-30zM59.999 452h-30V272h30v180zm92 15c0 8.271-6.729 15-15 15h-47V272h62v195zM347 332h90c8.271 0 15 6.729 15 15s-6.729 15-15 15h-90c-8.284 0-15 6.716-15 15s6.716 15 15 15h60c8.271 0 15 6.729 15 15s-6.729 15-15 15h-60c-8.284 0-15 6.716-15 15s6.716 15 15 15h30c8.271 0 15 6.729 15 15s-6.729 15-15 15h-88.153L182 455.289V268.376c20.238-5.811 63.165-18.822 88.316-31.431 34.45-17.271 55.545-71.899 60.535-112.494a40.296 40.296 0 0 1 16.684 11.542 40.515 40.515 0 0 1 9.378 32.462c-7.105 47.654-16.018 67.215-23.329 81.836A15 15 0 0 0 347 272h90c8.271 0 15 6.729 15 15s-6.729 15-15 15h-90c-8.284 0-15 6.716-15 15s6.716 15 15 15zM332 0c-8.284 0-15 6.716-15 15v32c0 8.284 6.716 15 15 15s15-6.716 15-15V15c0-8.284-6.716-15-15-15zm-84.853 75.934l-21.213-21.213c-5.857-5.858-15.355-5.858-21.213 0-5.858 5.858-5.858 15.355 0 21.213l21.213 21.213c5.857 5.858 15.356 5.858 21.213 0 5.858-5.858 5.858-15.355 0-21.213z"/><path d="M196.999 167h-30c-8.284 0-15 6.716-15 15s6.716 15 15 15h30c8.284 0 15-6.716 15-15s-6.716-15-15-15zM497 167h-30c-8.284 0-15 6.716-15 15s6.716 15 15 15h30c8.284 0 15-6.716 15-15s-6.716-15-15-15zM459.279 54.721c-5.857-5.858-15.355-5.858-21.213 0l-21.213 21.213c-5.858 5.858-5.858 15.355 0 21.213 5.857 5.858 15.356 5.858 21.213 0l21.213-21.213c5.858-5.858 5.858-15.355 0-21.213z"/></symbol><symbol viewBox="0 0 510 510" id="registration" xmlns="http://www.w3.org/2000/svg"><path d="M150.45 206.55l-35.7 35.7L229.5 357l255-255-35.7-35.7-219.3 219.3-79.05-79.05zM459 255c0 112.2-91.8 204-204 204S51 367.2 51 255 142.8 51 255 51c20.4 0 38.25 2.55 56.1 7.65l40.801-40.8C321.3 7.65 288.15 0 255 0 114.75 0 0 114.75 0 255s114.75 255 255 255 255-114.75 255-255h-51z"/></symbol><symbol viewBox="0 0 52.966 52.966" id="search" xmlns="http://www.w3.org/2000/svg"><path d="M51.704 51.273L36.845 35.82c3.79-3.801 6.138-9.041 6.138-14.82 0-11.58-9.42-21-21-21s-21 9.42-21 21 9.42 21 21 21c5.083 0 9.748-1.817 13.384-4.832l14.895 15.491a.998.998 0 0 0 1.414.028 1 1 0 0 0 .028-1.414zM21.983 40c-10.477 0-19-8.523-19-19s8.523-19 19-19 19 8.523 19 19-8.524 19-19 19z"/></symbol><symbol viewBox="0 0 473.932 473.932" id="share" xmlns="http://www.w3.org/2000/svg"><path d="M385.513 301.214c-27.438 0-51.64 13.072-67.452 33.09l-146.66-75.002c1.92-7.161 3.3-14.56 3.3-22.347 0-8.477-1.639-16.458-3.926-24.224l146.013-74.656c15.725 20.924 40.553 34.6 68.746 34.6 47.758 0 86.391-38.633 86.391-86.348C471.926 38.655 433.292 0 385.535 0c-47.65 0-86.326 38.655-86.326 86.326 0 7.809 1.381 15.229 3.322 22.412L155.892 183.74c-15.833-20.039-40.079-33.154-67.56-33.154-47.715 0-86.326 38.676-86.326 86.369s38.612 86.348 86.326 86.348c28.236 0 53.043-13.719 68.832-34.664l145.948 74.656c-2.287 7.744-3.947 15.79-3.947 24.289 0 47.693 38.676 86.348 86.326 86.348 47.758 0 86.391-38.655 86.391-86.348.022-47.736-38.611-86.37-86.369-86.37z"/></symbol><symbol viewBox="0 0 189.473 189.473" id="telegram-logo" xmlns="http://www.w3.org/2000/svg"><path d="M152.531 179.476c-1.48 0-2.95-.438-4.211-1.293l-47.641-32.316-25.552 18.386a7.502 7.502 0 0 1-11.633-4.174l-12.83-48.622L4.821 93.928a7.501 7.501 0 0 1-.094-13.975l174.312-69.36a7.503 7.503 0 0 1 10.282 8.408L159.898 173.38a7.499 7.499 0 0 1-7.367 6.096zm-47.669-48.897l42.437 28.785L170.193 39.24l-82.687 79.566 17.156 11.638c.069.043.135.089.2.135zm-35.327-6.401l5.682 21.53 12.242-8.809-16.03-10.874a7.478 7.478 0 0 1-1.894-1.847zM28.136 86.782l31.478 12.035a7.5 7.5 0 0 1 4.573 5.092l3.992 15.129a7.504 7.504 0 0 1 2.259-4.624L149.227 38.6 28.136 86.782z"/></symbol><symbol viewBox="0 0 480.56 480.56" id="telephone" xmlns="http://www.w3.org/2000/svg"><path d="M365.354 317.9c-15.7-15.5-35.3-15.5-50.9 0-11.9 11.8-23.8 23.6-35.5 35.6-3.2 3.3-5.9 4-9.8 1.8-7.7-4.2-15.9-7.6-23.3-12.2-34.5-21.7-63.4-49.6-89-81-12.7-15.6-24-32.3-31.9-51.1-1.6-3.8-1.3-6.3 1.8-9.4 11.9-11.5 23.5-23.3 35.2-35.1 16.3-16.4 16.3-35.6-.1-52.1-9.3-9.4-18.6-18.6-27.9-28-9.6-9.6-19.1-19.3-28.8-28.8-15.7-15.3-35.3-15.3-50.9.1-12 11.8-23.5 23.9-35.7 35.5-11.3 10.7-17 23.8-18.2 39.1-1.9 24.9 4.2 48.4 12.8 71.3 17.6 47.4 44.4 89.5 76.9 128.1 43.9 52.2 96.3 93.5 157.6 123.3 27.6 13.4 56.2 23.7 87.3 25.4 21.4 1.2 40-4.2 54.9-20.9 10.2-11.4 21.7-21.8 32.5-32.7 16-16.2 16.1-35.8.2-51.8-19-19.1-38.1-38.1-57.2-57.1zm-19.1-79.7l36.9-6.3c-5.8-33.9-21.8-64.6-46.1-89-25.7-25.7-58.2-41.9-94-46.9l-5.2 37.1c27.7 3.9 52.9 16.4 72.8 36.3 18.8 18.8 31.1 42.6 35.6 68.8zm57.7-160.4c-42.6-42.6-96.5-69.5-156-77.8l-5.2 37.1c51.4 7.2 98 30.5 134.8 67.2 34.9 34.9 57.8 79 66.1 127.5l36.9-6.3c-9.7-56.2-36.2-107.2-76.6-147.7z"/></symbol><symbol viewBox="0 0 512 512" id="temperature" xmlns="http://www.w3.org/2000/svg"><path d="M416.499 339.567V55c0-30.327-24.673-55-55-55s-55 24.673-55 55v284.564c-25.5 18.123-40.632 47.804-39.979 79.432 1.021 49.478 40.495 90.269 89.867 92.867 1.734.091 3.462.137 5.184.137 24.446-.001 47.469-9.154 65.305-26.076 19.103-18.124 29.623-42.603 29.623-68.927-.001-30.805-15.127-59.722-40-77.43zm-70-248.568h40v30h-40v-30zm0 60h40v30h-40v-30zm0 60h40v30h-40v-30zm0 59.999h40v30h-40v-30zm15 175.999c-16.569 0-30-13.432-30-30 0-16.568 13.431-30 30-30s30 13.432 30 30c0 16.568-13.431 30-30 30zM238.391 129.53l37.109-19.531-37.109-19.531L260.763 55l-41.903 1.64 1.64-41.903-35.469 22.372L165.5 0l-19.531 37.109L110.5 14.737l1.64 41.903L70.239 55 92.61 90.468 55.5 109.999l37.109 19.531-22.371 35.469 41.903-1.64-1.64 41.903 35.469-22.372 19.53 37.109 19.531-37.109 35.469 22.372-1.64-41.903 41.903 1.64-22.372-35.469zM165.5 164.999c-30.376 0-55-24.625-55-55s24.624-55 55-55 55 24.625 55 55-24.624 55-55 55z"/></symbol><symbol viewBox="0 0 297 297" id="trophy" xmlns="http://www.w3.org/2000/svg"><path d="M174.691 194.214c0-2.718-2.152-4.382-4.782-3.698 0 0-12.318 3.201-21.409 3.201s-21.409-3.201-21.409-3.201c-2.63-.684-4.782.98-4.782 3.698v14.329a4.956 4.956 0 0 0 4.941 4.941h42.5a4.956 4.956 0 0 0 4.941-4.941v-14.329zm48.924-184.33c0-5.458-4.426-9.884-9.884-9.884H83.269c-5.458 0-9.884 4.426-9.884 9.884v81.539c0 25.522 7.591 48.754 21.374 65.415 13.874 16.771 32.96 26.008 53.741 26.008s39.867-9.236 53.741-26.008c13.783-16.661 21.374-39.893 21.374-65.415V9.884zM63.981 111.227c-13.525-5.033-19.753-16.706-19.753-36.111V30.969h18.285V11.202H34.346c-5.459 0-9.884 4.425-9.884 9.884v54.029c0 32.961 15.788 53.039 44.818 57.729-2.385-6.859-4.171-14.095-5.299-21.617zM83.269 228.31c-5.458 0-9.884 4.425-9.884 9.884v48.923c0 5.458 4.426 9.884 9.884 9.884h130.463c5.458 0 9.884-4.426 9.884-9.884v-48.923c0-5.459-4.426-9.884-9.884-9.884H83.269zM262.654 11.202h-28.168v19.767h18.285v44.146c0 19.405-6.228 31.078-19.753 36.111-1.128 7.522-2.913 14.759-5.299 21.618 29.03-4.69 44.818-24.768 44.818-57.729V21.086c.001-5.459-4.424-9.884-9.883-9.884z"/></symbol><symbol viewBox="0 0 64 64" id="up-arrow" xmlns="http://www.w3.org/2000/svg"><path d="M3.352 48.296l28.56-28.328 28.58 28.347c.397.394.917.59 1.436.59.52 0 1.04-.196 1.436-.59a2.003 2.003 0 0 0 0-2.849l-29.98-29.735c-.2-.2-.494-.375-.757-.475a2.052 2.052 0 0 0-2.166.456L.479 45.447a2.003 2.003 0 0 0 0 2.849 2.045 2.045 0 0 0 2.873 0z"/></symbol><symbol viewBox="-822 823.1 56.7 56.7" id="visa" xmlns="http://www.w3.org/2000/svg"><path d="M-797.8 845.3l-3.3 15.2h4l3.2-15.2zm-5.8 0l-4.1 10.3-1.7-8.8c-.2-1-1-1.5-1.8-1.5h-6.7l-.1.4c1.4.3 2.9.8 3.9 1.3.6.3.7.6.9 1.3l3.1 12.1h4.2l6.4-15.2h-4.1zm31.1 0h-3.4c-.8 0-1.4.4-1.7 1.1l-5.9 14.1h4.1l.8-2.3h5l.5 2.3h3.6l-3-15.2zm-4.8 9.8l2.1-5.7 1.2 5.7h-3.3zm-11.4-5.6c0-.5.5-1.1 1.7-1.3.6-.1 2.1-.1 3.9.7l.7-3.2c-.9-.3-2.2-.7-3.7-.7-3.9 0-6.6 2.1-6.6 5 0 2.2 2 3.4 3.4 4.1 1.5.7 2 1.2 2 1.9 0 1-1.2 1.5-2.4 1.5-2 0-3.1-.5-4-1l-.7 3.3c.9.4 2.6.8 4.4.8 4.1 0 6.8-2 6.8-5.2 0-3.8-5.6-4.1-5.5-5.9z"/></symbol><symbol viewBox="0 0 548.358 548.358" id="vk-social" xmlns="http://www.w3.org/2000/svg"><path d="M545.451 400.298c-.664-1.431-1.283-2.618-1.858-3.569-9.514-17.135-27.695-38.167-54.532-63.102l-.567-.571-.284-.28-.287-.287h-.288c-12.18-11.611-19.893-19.418-23.123-23.415-5.91-7.614-7.234-15.321-4.004-23.13 2.282-5.9 10.854-18.36 25.696-37.397 7.807-10.089 13.99-18.175 18.556-24.267 32.931-43.78 47.208-71.756 42.828-83.939l-1.701-2.847c-1.143-1.714-4.093-3.282-8.846-4.712-4.764-1.427-10.853-1.663-18.278-.712l-82.224.568c-1.332-.472-3.234-.428-5.712.144l-3.713.859-1.431.715-1.136.859c-.952.568-1.999 1.567-3.142 2.995-1.137 1.423-2.088 3.093-2.848 4.996-8.952 23.031-19.13 44.444-30.553 64.238-7.043 11.803-13.511 22.032-19.418 30.693-5.899 8.658-10.848 15.037-14.842 19.126-4 4.093-7.61 7.372-10.852 9.849-3.237 2.478-5.708 3.525-7.419 3.142-1.715-.383-3.33-.763-4.859-1.143-2.663-1.714-4.805-4.045-6.42-6.995-1.622-2.95-2.714-6.663-3.285-11.136-.568-4.476-.904-8.326-1-11.563-.089-3.233-.048-7.806.145-13.706.198-5.903.287-9.897.287-11.991 0-7.234.141-15.085.424-23.555.288-8.47.521-15.181.716-20.125.194-4.949.284-10.185.284-15.705s-.336-9.849-1-12.991a44.442 44.442 0 0 0-2.99-9.137c-1.335-2.95-3.289-5.232-5.853-6.852-2.569-1.618-5.763-2.902-9.564-3.856-10.089-2.283-22.936-3.518-38.547-3.71-35.401-.38-58.148 1.906-68.236 6.855-3.997 2.091-7.614 4.948-10.848 8.562-3.427 4.189-3.905 6.475-1.431 6.851 11.422 1.711 19.508 5.804 24.267 12.275l1.715 3.429c1.334 2.474 2.666 6.854 3.999 13.134 1.331 6.28 2.19 13.227 2.568 20.837.95 13.897.95 25.793 0 35.689-.953 9.9-1.853 17.607-2.712 23.127-.859 5.52-2.143 9.993-3.855 13.418-1.715 3.426-2.856 5.52-3.428 6.28-.571.76-1.047 1.239-1.425 1.427a21.387 21.387 0 0 1-7.71 1.431c-2.667 0-5.901-1.334-9.707-4-3.805-2.666-7.754-6.328-11.847-10.992-4.093-4.665-8.709-11.184-13.85-19.558-5.137-8.374-10.467-18.271-15.987-29.691l-4.567-8.282c-2.855-5.328-6.755-13.086-11.704-23.267-4.952-10.185-9.329-20.037-13.134-29.554-1.521-3.997-3.806-7.04-6.851-9.134l-1.429-.859c-.95-.76-2.475-1.567-4.567-2.427a30.301 30.301 0 0 0-6.567-1.854l-78.229.568c-7.994 0-13.418 1.811-16.274 5.428l-1.143 1.711c-.571.953-.859 2.475-.859 4.57 0 2.094.571 4.664 1.714 7.707 11.42 26.84 23.839 52.725 37.257 77.659 13.418 24.934 25.078 45.019 34.973 60.237 9.897 15.229 19.985 29.602 30.264 43.112 10.279 13.515 17.083 22.176 20.412 25.981 3.333 3.812 5.951 6.662 7.854 8.565l7.139 6.851c4.568 4.569 11.276 10.041 20.127 16.416 8.853 6.379 18.654 12.659 29.408 18.85 10.756 6.181 23.269 11.225 37.546 15.126 14.275 3.905 28.169 5.472 41.684 4.716h32.834c6.659-.575 11.704-2.669 15.133-6.283l1.136-1.431c.764-1.136 1.479-2.901 2.139-5.276.668-2.379 1-5 1-7.851-.195-8.183.428-15.558 1.852-22.124 1.423-6.564 3.045-11.513 4.859-14.846 1.813-3.33 3.859-6.14 6.136-8.418 2.282-2.283 3.908-3.666 4.862-4.142.948-.479 1.705-.804 2.276-.999 4.568-1.522 9.944-.048 16.136 4.429 6.187 4.473 11.99 9.996 17.418 16.56 5.425 6.57 11.943 13.941 19.555 22.124 7.617 8.186 14.277 14.271 19.985 18.274l5.708 3.426c3.812 2.286 8.761 4.38 14.853 6.283 6.081 1.902 11.409 2.378 15.984 1.427l73.087-1.14c7.229 0 12.854-1.197 16.844-3.572 3.998-2.379 6.373-5 7.139-7.851.764-2.854.805-6.092.145-9.712-.677-3.611-1.344-6.136-2.008-7.563z"/></symbol><symbol viewBox="0 0 512 512" id="water" xmlns="http://www.w3.org/2000/svg"><path d="M335.351 238.935L268.51 137.978c-5.566-8.408-19.453-8.408-25.02 0L175.8 240.385c-6.416 12.554-9.8 26.689-9.8 40.869 0 49.629 40.371 90 90 90s90-40.371 90-90c0-14.18-3.384-28.315-10.649-42.319zM256 0C196.3 0 141.099 21.7 97.599 56.201L73.001 38.5c-5.202-3.466-11.506-3.534-16.201-.601C51.7 40.6 48.999 46.3 49.3 52l-3.6 103.5c.617 9.863 11.059 16.773 20.099 12.901 40.743-12.925 108.831-35.621 105.3-34.501 5.4-2.1 9.3-6.899 9.901-12.299.601-5.7-2.1-11.1-6.599-14.401L151.3 91.901C182.423 71.871 219.998 61 256 61c19.913 0 39.287 3.118 57.631 8.87-2.45-9.871-.916-22.24 5.533-32.703 5.977-9.692 15.328-16.56 25.981-19.633C317.251 7.011 287.262 0 256 0zm-87.6 446.201c-12.925-40.743-35.621-108.831-34.501-105.3-2.1-5.4-6.899-9.3-12.299-9.901-5.7-.601-11.1 2.1-14.401 6.599L91.901 360.7C71.871 329.577 61 292.002 61 256c0-19.882 3.105-39.227 8.839-57.545-2.763.59-5.923 1.031-9.351 1.031-20.286 0-37.57-13.709-42.984-32.547C7 194.81 0 224.77 0 256c0 59.7 21.7 114.901 56.201 158.401L38.5 438.999c-3.466 5.202-3.534 11.506-.601 16.201C40.6 460.299 46.3 463 52 462.7l103.5 3.6c9.862-.617 16.772-11.06 12.9-20.099zM466.3 356.5c-.617-9.862-11.06-16.772-20.099-12.9-40.743 12.925-108.831 35.621-105.3 34.501-5.4 2.1-9.3 6.899-9.901 12.299-.601 5.7 2.1 11.1 6.599 14.401l23.101 15.298C329.577 440.129 292.002 451 256 451c-19.915 0-39.289-3.12-57.634-8.871 2.448 9.88.906 22.255-5.544 32.719-5.966 9.683-15.315 16.551-25.963 19.62C194.751 504.989 224.74 512 256 512c59.7 0 114.901-21.7 158.401-56.201l24.598 17.701c5.202 3.466 11.506 3.534 16.201.601 5.099-2.701 7.8-8.401 7.5-14.101l3.6-103.5zM455.799 97.599L473.5 73.001c3.466-5.202 3.534-11.506.601-16.201-2.701-5.1-8.401-7.801-14.101-7.5l-103.5-3.6c-9.863.617-16.773 11.059-12.901 20.099 12.925 40.743 35.621 108.831 34.501 105.3 2.1 5.4 6.899 9.3 12.299 9.901 5.7.601 11.1-2.1 14.401-6.599l15.298-23.101C440.129 182.423 451 219.998 451 256c0 19.882-3.105 39.227-8.839 57.545 2.763-.59 5.923-1.031 9.351-1.031 20.286 0 38.57 13.709 43.984 32.547C506 317.19 512 287.23 512 256c0-59.7-21.7-114.901-56.201-158.401z"/></symbol><symbol viewBox="0 0 56.48 56.48" id="yandex-pay-card-logo" xmlns="http://www.w3.org/2000/svg"><path d="M5.937 21.055c-.017.04-.038.08-.051.122-.157.528-.036 1.011.389 1.428.371.364.879.244 1.366.249v-2.607c-.971-.122-1.388.081-1.704.808zm.33 8.281c.001.181.003.344.001.508-.008 1.063-.006 2.129-.307 3.168-.149.518-.396 1.016-.599 1.521h2.37v-5.197H6.267zm7.459.21c-.143-.242-.354-.429-.71-.445-.364-.018-.581.17-.744.399-.383.539-.495 1.138-.555 1.776h2.375c.003-.605-.049-1.188-.366-1.73zm11.821 3.167c-.162-.781-.789-1.094-1.728-.895-.069.015-.165.104-.165.159-.012.83-.008 1.662-.008 2.505.938.223 1.716-.138 1.895-.896.066-.281.064-.591.006-.873z"/><path d="M55.026 9.939H1.454C.65 9.939 0 10.59 0 11.393v33.694c0 .803.65 1.455 1.454 1.455h53.572c.804 0 1.454-.651 1.454-1.454V11.393c0-.803-.65-1.454-1.454-1.454zm-31.98 13.543c.047-.501.193-.978.563-1.39.481-.534 1.363-.635 2.007-.212l-.245.308c-.028.004-.045.011-.06.007-.78-.211-1.249-.022-1.485.617a2.537 2.537 0 0 0-.11 1.428c.192.924.923 1.244 1.985.89.098.43.042.483-.459.6-.709.167-1.4-.081-1.797-.609-.38-.505-.451-1.064-.399-1.639zM5.781 20.119a1.741 1.741 0 0 1 1.205-.437c.34.001.679 0 1.02 0 .37.001.371 0 .371.297v5.7h-.716v-2.195c-.422-.081-.444-.073-.623.203-.388.602-.785 1.2-1.159 1.807-.098.157-.207.225-.419.206-.16-.014-.324-.003-.537-.003l1.524-2.294c-1.494-.403-1.789-2.291-.666-3.284zm3.966 16.68h-1.05v-1.473H4.782v1.467H3.701V34.57c.026-.007.052-.025.073-.021.4.066.557-.118.688-.396.396-.847.594-1.726.667-2.622.082-1.009.106-2.022.156-3.051h3.621v6.062h.841v2.257zm.402-11.107h-.637v-3.908h.618v1.584h1.182v-1.579h.633v3.905h-.629v-1.752h-1.167v1.75zm1.766 9.579a2.132 2.132 0 0 1-1.064-1.161c-.642-1.582-.57-3.15.268-4.673.286-.519.711-.957 1.408-1.146.671-.182 1.209-.051 1.656.399.505.51.749 1.118.872 1.751.097.506.102 1.027.15 1.562h-3.456c.01.644.001 1.252.234 1.842.302.768.994 1.06 2.053.844.327-.067.635-.189.978-.293.066.158.14.342.213.521-.924.648-2.399.802-3.312.354zm4.079-8.849h-.557v-.795h-2.213v.799h-.589v-1.23c.317.042.378-.159.46-.347.332-.762.361-1.559.395-2.355.01-.229.001-.457.001-.711h2.043v3.39l.46.018v1.231zm.864-4.039c.108-.19.262-.377.445-.523.487-.391 1.1-.315 1.454.161.403.542.481 1.138.439 1.774h-1.935c-.014.425-.025.831.204 1.209.195.323.561.437 1.074.333.184-.037.36-.101.543-.154.208.222.2.317-.101.422a3.81 3.81 0 0 1-.844.205c-.594.063-1.106-.191-1.33-.688a3.717 3.717 0 0 1-.297-1.062 2.653 2.653 0 0 1 .348-1.677zm3.993 12.997h-1.122v-3.125h-1.534c-.53 0-.53-.002-.53.442v2.683h-1.118v-6.902h1.104V31.3h2.07v-2.826c.352 0 .673-.006.992.007.052.002.105.079.147.128.017.02.003.056.003.085l.001 6.483c0 .062-.008.127-.013.203zm1.309-9.779c-.068-.008-.14-.093-.182-.157-.322-.476-.637-.955-.956-1.434a.618.618 0 0 0-.215-.206c-.04.152-.11.304-.116.456-.016.443-.006.886-.006 1.339h-.62v-3.815h.611v1.68c.096-.093.146-.134.186-.181.352-.419.717-.831 1.046-1.263.15-.196.317-.285.59-.248.068.009.138.001.259.001-.064.084-.104.141-.15.197-.375.45-.744.903-1.13 1.346-.104.119-.098.206-.017.326.428.641.846 1.284 1.294 1.967-.225 0-.412.015-.594-.008zm4.756 8.427c-.364.832-1.141 1.238-2.16 1.312-.68.051-1.369.01-2.082.01v-6.872h.964v2.473c.479 0 .931-.028 1.375.006 1.127.091 1.833.656 2.02 1.585.1.505.096 1.007-.117 1.486zm5.285-4.861h-3.112v6.212h-1.023v-6.908h4.137c0 .231 0 .45-.002.696zm3.758 6.213v-4.537l-2.097 4.543h-1.098v-6.912h1.119v4.259l.053.009c.195-.417.394-.832.587-1.249.44-.952.883-1.901 1.319-2.854.061-.137.142-.188.322-.181.346.015.694.005 1.055.005l.001 6.917h-1.261zm16.521-.133c-.24.197-.535.264-.855.264-1.475.002-2.947 0-4.42 0-1.482 0-2.964.002-4.445 0-.742-.002-1.278-.338-1.485-.924a.805.805 0 0 1-.036-.254c-.002-1.724.003-3.447-.004-5.171-.003-.608.342-1.034.961-1.33 2.102-1.001 4.204-2.002 6.305-3.005.344-.164.694-.277 1.09-.135.344.125.492.366.494.655.006 1.825.024 3.65-.01 5.473-.011.563-.372 1.011-1.041 1.235-1.484.498-2.971.986-4.456 1.479-.371.123-.743.243-1.112.373a1.157 1.157 0 0 0-.326.174c-.069.059-.157.18-.129.229a.396.396 0 0 0 .281.149c.23.001.468-.024.692-.073 2.001-.434 3.999-.879 5.999-1.32.643-.143 1.18-.706 1.182-1.256.006-1.049.01-2.098-.004-3.146-.002-.215.069-.304.338-.276.139.015.278 0 .418.002.459.006.773.231.84.606.019.104.021.216.021.322.002 1.681.002 3.36.001 5.042 0 .317.014.635-.299.887z"/><path d="M47.579 27.765c-.496.063-.82.306-.97.692-.163.417.099.748.569.75.562.001 1.133-.528 1.062-.985-.047-.295-.333-.498-.661-.457zm-33.507-5.502c-.043.991.038 1.985-.559 2.908h1.376v-2.908h-.817zm4.28.075c-.193-.283-.554-.292-.771-.021-.25.313-.323.667-.343 1.049h1.348c.008-.366-.018-.713-.234-1.028z"/></symbol></svg>